M48
;Layer_Color=9474304
;FILE_FORMAT=2:5
INCH,LZ
;TYPE=PLATED
T1F00S00C0.02800
T2F00S00C0.03500
T3F00S00C0.03543
T4F00S00C0.05118
T5F00S00C0.12500
%
T01
X0109075Y0137028
T02
X0072835Y0027559
X0082835
X0109173Y0027953
X0119173
X0206536Y0045827
X0216536
X0226536
X0236536
X0246536
X0248583Y006063
X0238583
X0236142Y0009606
X0226142
X0216142
X0206142
X0246142
X0256142
X0266142
X0276142
X0286142
X0296142
X0311142
X0321142
X0331142
X0341142
X0351142
X0361142
X0371142
X0381142
X0384685Y0045827
X0374685
X0364685
X0354685
X0344685
X0334685
X0324685
X0314685
X0296536
X0286536
X0276536
X0266536
X0256536
X0258583Y006063
X0268583
X0278583
X0288583
X0298583
X0308583
X0328898
X0338898
X0348898
X0358898
X0368898
X0378898
X0380945Y0125197
X0390945
Y0135197
X0380945
Y0145197
X0390945
X0381142Y0199606
X0371142
X0361142
X0351142
X0341142
X0331142
X0311142
X0301142
X0291142
X0281142
X0271142
X0261142
X0365748Y0227165
Y0237165
X0375748
Y0227165
X0385748
Y0237165
X0251142Y0199606
X0241142
X017126Y0189764
Y0179764
Y0169764
Y0159764
Y0149606
Y0139764
X0166772Y0236221
X0176772
X0156772
X0119567Y0241732
X0109567
X0077835
X0067835
T03
X0205118Y020748
X0215118
Y021748
X0205118
X0249213Y0249606
Y0259606
X0259213
Y0249606
T04
X0070866Y0057087
Y0066929
Y0076772
Y0086614
T05
X018937Y0048819
X0394094Y0068504
X0393701Y0178347
X0194095Y0236614
M30
