G04 Layer_Physical_Order=1*
G04 Layer_Color=255*
%FSLAX25Y25*%
%MOIN*%
G70*
G01*
G75*
%ADD10R,0.05118X0.03937*%
%ADD11R,0.05906X0.15748*%
%ADD12R,0.05906X0.15748*%
%ADD13C,0.03937*%
%ADD14C,0.04000*%
%ADD15C,0.01200*%
%ADD16R,0.00000X2.69685*%
%ADD17R,0.00000X2.69685*%
%ADD18R,0.07000X0.07000*%
%ADD19C,0.07000*%
%ADD20C,0.07000*%
%ADD21C,0.05906*%
%ADD22R,0.05906X0.05906*%
%ADD23R,0.07000X0.07000*%
%ADD24O,0.15748X0.07874*%
%ADD25C,0.05000*%
G36*
X408414Y269291D02*
X408914Y269291D01*
Y-394D01*
X44924D01*
X44924Y-394D01*
Y268938D01*
X45278Y269291D01*
X408414Y269291D01*
D02*
G37*
%LPC*%
G36*
X236536Y50366D02*
X235361Y50211D01*
X234266Y49758D01*
X233726Y49343D01*
X236536Y46534D01*
X239345Y49343D01*
X238805Y49758D01*
X237710Y50211D01*
X236536Y50366D01*
D02*
G37*
G36*
X238583Y65371D02*
X237356Y65209D01*
X236212Y64735D01*
X235231Y63982D01*
X234477Y63000D01*
X234004Y61857D01*
X233842Y60630D01*
X234004Y59403D01*
X234477Y58260D01*
X235231Y57278D01*
X236212Y56524D01*
X237356Y56051D01*
X238583Y55889D01*
X239810Y56051D01*
X240953Y56524D01*
X241935Y57278D01*
X242688Y58260D01*
X243162Y59403D01*
X243323Y60630D01*
X243162Y61857D01*
X242688Y63000D01*
X241935Y63982D01*
X240953Y64735D01*
X239810Y65209D01*
X238583Y65371D01*
D02*
G37*
G36*
X240052Y48636D02*
X237243Y45827D01*
X240052Y43018D01*
X240466Y43557D01*
X240920Y44652D01*
X241074Y45827D01*
X240920Y47002D01*
X240466Y48096D01*
X240052Y48636D01*
D02*
G37*
G36*
X114961Y49490D02*
X111715Y46244D01*
X118206D01*
X114961Y49490D01*
D02*
G37*
G36*
X248583Y65371D02*
X247356Y65209D01*
X246213Y64735D01*
X245231Y63982D01*
X244477Y63000D01*
X244004Y61857D01*
X243842Y60630D01*
X244004Y59403D01*
X244477Y58260D01*
X245231Y57278D01*
X246213Y56524D01*
X247356Y56051D01*
X248583Y55889D01*
X249810Y56051D01*
X250953Y56524D01*
X251935Y57278D01*
X252688Y58260D01*
X253162Y59403D01*
X253323Y60630D01*
X253162Y61857D01*
X252688Y63000D01*
X251935Y63982D01*
X250953Y64735D01*
X249810Y65209D01*
X248583Y65371D01*
D02*
G37*
G36*
X278583D02*
X277356Y65209D01*
X276213Y64735D01*
X275231Y63982D01*
X274477Y63000D01*
X274004Y61857D01*
X273842Y60630D01*
X274004Y59403D01*
X274477Y58260D01*
X275231Y57278D01*
X276213Y56524D01*
X277356Y56051D01*
X278583Y55889D01*
X279810Y56051D01*
X280953Y56524D01*
X281935Y57278D01*
X282688Y58260D01*
X283162Y59403D01*
X283323Y60630D01*
X283162Y61857D01*
X282688Y63000D01*
X281935Y63982D01*
X280953Y64735D01*
X279810Y65209D01*
X278583Y65371D01*
D02*
G37*
G36*
X328898D02*
X327671Y65209D01*
X326527Y64735D01*
X325546Y63982D01*
X324792Y63000D01*
X324319Y61857D01*
X324157Y60630D01*
X324319Y59403D01*
X324792Y58260D01*
X325546Y57278D01*
X326527Y56524D01*
X327671Y56051D01*
X328898Y55889D01*
X330125Y56051D01*
X331268Y56524D01*
X332250Y57278D01*
X333003Y58260D01*
X333477Y59403D01*
X333638Y60630D01*
X333477Y61857D01*
X333003Y63000D01*
X332250Y63982D01*
X331268Y64735D01*
X330125Y65209D01*
X328898Y65371D01*
D02*
G37*
G36*
X258583D02*
X257356Y65209D01*
X256212Y64735D01*
X255231Y63982D01*
X254477Y63000D01*
X254004Y61857D01*
X253842Y60630D01*
X254004Y59403D01*
X254477Y58260D01*
X255231Y57278D01*
X256212Y56524D01*
X257356Y56051D01*
X258583Y55889D01*
X259810Y56051D01*
X260953Y56524D01*
X261935Y57278D01*
X262688Y58260D01*
X263162Y59403D01*
X263323Y60630D01*
X263162Y61857D01*
X262688Y63000D01*
X261935Y63982D01*
X260953Y64735D01*
X259810Y65209D01*
X258583Y65371D01*
D02*
G37*
G36*
X268583D02*
X267356Y65209D01*
X266213Y64735D01*
X265231Y63982D01*
X264477Y63000D01*
X264004Y61857D01*
X263842Y60630D01*
X264004Y59403D01*
X264477Y58260D01*
X265231Y57278D01*
X266213Y56524D01*
X267356Y56051D01*
X268583Y55889D01*
X269810Y56051D01*
X270953Y56524D01*
X271935Y57278D01*
X272688Y58260D01*
X273162Y59403D01*
X273323Y60630D01*
X273162Y61857D01*
X272688Y63000D01*
X271935Y63982D01*
X270953Y64735D01*
X269810Y65209D01*
X268583Y65371D01*
D02*
G37*
G36*
X364685Y50567D02*
X363458Y50406D01*
X362315Y49932D01*
X361333Y49179D01*
X360580Y48197D01*
X360106Y47054D01*
X359945Y45827D01*
X360106Y44600D01*
X360580Y43457D01*
X361333Y42475D01*
X362315Y41721D01*
X363458Y41248D01*
X364685Y41086D01*
X365912Y41248D01*
X367056Y41721D01*
X368037Y42475D01*
X368791Y43457D01*
X369264Y44600D01*
X369426Y45827D01*
X369264Y47054D01*
X368791Y48197D01*
X368037Y49179D01*
X367056Y49932D01*
X365912Y50406D01*
X364685Y50567D01*
D02*
G37*
G36*
X374685D02*
X373458Y50406D01*
X372315Y49932D01*
X371333Y49179D01*
X370580Y48197D01*
X370106Y47054D01*
X369945Y45827D01*
X370106Y44600D01*
X370580Y43457D01*
X371333Y42475D01*
X372315Y41721D01*
X373458Y41248D01*
X374685Y41086D01*
X375912Y41248D01*
X377056Y41721D01*
X378037Y42475D01*
X378791Y43457D01*
X379264Y44600D01*
X379426Y45827D01*
X379264Y47054D01*
X378791Y48197D01*
X378037Y49179D01*
X377056Y49932D01*
X375912Y50406D01*
X374685Y50567D01*
D02*
G37*
G36*
X344685D02*
X343458Y50406D01*
X342315Y49932D01*
X341333Y49179D01*
X340580Y48197D01*
X340106Y47054D01*
X339945Y45827D01*
X340106Y44600D01*
X340580Y43457D01*
X341333Y42475D01*
X342315Y41721D01*
X343458Y41248D01*
X344685Y41086D01*
X345912Y41248D01*
X347056Y41721D01*
X348037Y42475D01*
X348791Y43457D01*
X349264Y44600D01*
X349426Y45827D01*
X349264Y47054D01*
X348791Y48197D01*
X348037Y49179D01*
X347056Y49932D01*
X345912Y50406D01*
X344685Y50567D01*
D02*
G37*
G36*
X354685D02*
X353458Y50406D01*
X352315Y49932D01*
X351333Y49179D01*
X350580Y48197D01*
X350106Y47054D01*
X349945Y45827D01*
X350106Y44600D01*
X350580Y43457D01*
X351333Y42475D01*
X352315Y41721D01*
X353458Y41248D01*
X354685Y41086D01*
X355912Y41248D01*
X357055Y41721D01*
X358037Y42475D01*
X358791Y43457D01*
X359264Y44600D01*
X359426Y45827D01*
X359264Y47054D01*
X358791Y48197D01*
X358037Y49179D01*
X357055Y49932D01*
X355912Y50406D01*
X354685Y50567D01*
D02*
G37*
G36*
X301236Y50527D02*
X291836D01*
Y41127D01*
X301236D01*
Y50527D01*
D02*
G37*
G36*
X189370Y56305D02*
X187910Y56161D01*
X186505Y55735D01*
X185211Y55043D01*
X184077Y54112D01*
X183146Y52978D01*
X182454Y51684D01*
X182028Y50279D01*
X181884Y48819D01*
X182028Y47358D01*
X182454Y45954D01*
X183146Y44660D01*
X184077Y43525D01*
X185211Y42595D01*
X186505Y41903D01*
X187910Y41477D01*
X189370Y41333D01*
X190831Y41477D01*
X192235Y41903D01*
X193529Y42595D01*
X194664Y43525D01*
X195595Y44660D01*
X196286Y45954D01*
X196712Y47358D01*
X196856Y48819D01*
X196712Y50279D01*
X196286Y51684D01*
X195595Y52978D01*
X194664Y54112D01*
X193529Y55043D01*
X192235Y55735D01*
X190831Y56161D01*
X189370Y56305D01*
D02*
G37*
G36*
X233019Y48636D02*
X232605Y48096D01*
X232151Y47002D01*
X231997Y45827D01*
X232151Y44652D01*
X232605Y43557D01*
X233019Y43018D01*
X235828Y45827D01*
X233019Y48636D01*
D02*
G37*
G36*
X389385Y50527D02*
X379985D01*
Y41127D01*
X389385D01*
Y50527D01*
D02*
G37*
G36*
X236536Y45120D02*
X233726Y42310D01*
X234266Y41896D01*
X235361Y41443D01*
X236536Y41288D01*
X237710Y41443D01*
X238805Y41896D01*
X239345Y42310D01*
X236536Y45120D01*
D02*
G37*
G36*
X302099Y63439D02*
X299290Y60630D01*
X302099Y57821D01*
X302514Y58360D01*
X302967Y59455D01*
X303122Y60630D01*
X302967Y61805D01*
X302514Y62899D01*
X302099Y63439D01*
D02*
G37*
G36*
X118913Y63285D02*
X115314Y59686D01*
X114961Y60039D01*
X114607Y59686D01*
X111008Y63285D01*
Y46951D01*
X114607Y50550D01*
X114961Y50197D01*
X115314Y50550D01*
X118913Y46951D01*
Y63285D01*
D02*
G37*
G36*
X292099Y63439D02*
X289290Y60630D01*
X292099Y57821D01*
X292513Y58360D01*
X292967Y59455D01*
X293122Y60630D01*
X292967Y61805D01*
X292513Y62899D01*
X292099Y63439D01*
D02*
G37*
G36*
X295066D02*
X294652Y62899D01*
X294199Y61805D01*
X294044Y60630D01*
X294199Y59455D01*
X294652Y58360D01*
X295066Y57821D01*
X297876Y60630D01*
X295066Y63439D01*
D02*
G37*
G36*
X118206Y63992D02*
X111715D01*
X114961Y60747D01*
X118206Y63992D01*
D02*
G37*
G36*
X298583Y65169D02*
X297408Y65014D01*
X296313Y64561D01*
X295774Y64146D01*
X298583Y61337D01*
X301392Y64146D01*
X300852Y64561D01*
X299758Y65014D01*
X298583Y65169D01*
D02*
G37*
G36*
X63101Y70050D02*
X62617Y69419D01*
X62119Y68218D01*
X61950Y66929D01*
X62119Y65640D01*
X62617Y64439D01*
X63101Y63808D01*
X66222Y66929D01*
X63101Y70050D01*
D02*
G37*
G36*
X394094Y75990D02*
X392634Y75846D01*
X391230Y75420D01*
X389935Y74728D01*
X388801Y73797D01*
X387870Y72663D01*
X387178Y71369D01*
X386752Y69964D01*
X386608Y68504D01*
X386752Y67044D01*
X387178Y65639D01*
X387870Y64345D01*
X388801Y63210D01*
X389935Y62279D01*
X391230Y61588D01*
X392634Y61162D01*
X394094Y61018D01*
X395555Y61162D01*
X396959Y61588D01*
X398253Y62279D01*
X399388Y63210D01*
X400319Y64345D01*
X401011Y65639D01*
X401437Y67044D01*
X401580Y68504D01*
X401437Y69964D01*
X401011Y71369D01*
X400319Y72663D01*
X399388Y73797D01*
X398253Y74728D01*
X396959Y75420D01*
X395555Y75846D01*
X394094Y75990D01*
D02*
G37*
G36*
X288583Y65169D02*
X287408Y65014D01*
X286313Y64561D01*
X285773Y64146D01*
X288583Y61337D01*
X291392Y64146D01*
X290852Y64561D01*
X289757Y65014D01*
X288583Y65169D01*
D02*
G37*
G36*
X358898Y65371D02*
X357671Y65209D01*
X356527Y64735D01*
X355546Y63982D01*
X354792Y63000D01*
X354319Y61857D01*
X354157Y60630D01*
X354319Y59403D01*
X354792Y58260D01*
X355546Y57278D01*
X356527Y56524D01*
X357671Y56051D01*
X358898Y55889D01*
X360125Y56051D01*
X361268Y56524D01*
X362250Y57278D01*
X363003Y58260D01*
X363477Y59403D01*
X363638Y60630D01*
X363477Y61857D01*
X363003Y63000D01*
X362250Y63982D01*
X361268Y64735D01*
X360125Y65209D01*
X358898Y65371D01*
D02*
G37*
G36*
X368898D02*
X367671Y65209D01*
X366527Y64735D01*
X365546Y63982D01*
X364792Y63000D01*
X364319Y61857D01*
X364157Y60630D01*
X364319Y59403D01*
X364792Y58260D01*
X365546Y57278D01*
X366527Y56524D01*
X367671Y56051D01*
X368898Y55889D01*
X370125Y56051D01*
X371268Y56524D01*
X372250Y57278D01*
X373003Y58260D01*
X373477Y59403D01*
X373638Y60630D01*
X373477Y61857D01*
X373003Y63000D01*
X372250Y63982D01*
X371268Y64735D01*
X370125Y65209D01*
X368898Y65371D01*
D02*
G37*
G36*
X338898D02*
X337671Y65209D01*
X336527Y64735D01*
X335546Y63982D01*
X334792Y63000D01*
X334319Y61857D01*
X334157Y60630D01*
X334319Y59403D01*
X334792Y58260D01*
X335546Y57278D01*
X336527Y56524D01*
X337671Y56051D01*
X338898Y55889D01*
X340125Y56051D01*
X341268Y56524D01*
X342250Y57278D01*
X343003Y58260D01*
X343477Y59403D01*
X343638Y60630D01*
X343477Y61857D01*
X343003Y63000D01*
X342250Y63982D01*
X341268Y64735D01*
X340125Y65209D01*
X338898Y65371D01*
D02*
G37*
G36*
X348898D02*
X347671Y65209D01*
X346527Y64735D01*
X345546Y63982D01*
X344792Y63000D01*
X344319Y61857D01*
X344157Y60630D01*
X344319Y59403D01*
X344792Y58260D01*
X345546Y57278D01*
X346527Y56524D01*
X347671Y56051D01*
X348898Y55889D01*
X350125Y56051D01*
X351268Y56524D01*
X352250Y57278D01*
X353003Y58260D01*
X353477Y59403D01*
X353638Y60630D01*
X353477Y61857D01*
X353003Y63000D01*
X352250Y63982D01*
X351268Y64735D01*
X350125Y65209D01*
X348898Y65371D01*
D02*
G37*
G36*
X313283Y65330D02*
X303883D01*
Y55930D01*
X313283D01*
Y65330D01*
D02*
G37*
G36*
X298583Y59923D02*
X295774Y57113D01*
X296313Y56699D01*
X297408Y56246D01*
X298583Y56091D01*
X299758Y56246D01*
X300852Y56699D01*
X301392Y57113D01*
X298583Y59923D01*
D02*
G37*
G36*
X285066Y63439D02*
X284652Y62899D01*
X284199Y61805D01*
X284044Y60630D01*
X284199Y59455D01*
X284652Y58360D01*
X285066Y57821D01*
X287876Y60630D01*
X285066Y63439D01*
D02*
G37*
G36*
X383598Y65330D02*
X374198D01*
Y55930D01*
X383598D01*
Y65330D01*
D02*
G37*
G36*
X288583Y59923D02*
X285773Y57113D01*
X286313Y56699D01*
X287408Y56246D01*
X288583Y56091D01*
X289757Y56246D01*
X290852Y56699D01*
X291392Y57113D01*
X288583Y59923D01*
D02*
G37*
G36*
X331142Y14347D02*
X329915Y14185D01*
X328771Y13712D01*
X327790Y12958D01*
X327036Y11976D01*
X326563Y10833D01*
X326401Y9606D01*
X326563Y8379D01*
X327036Y7236D01*
X327790Y6254D01*
X328771Y5501D01*
X329915Y5027D01*
X331142Y4866D01*
X332369Y5027D01*
X333512Y5501D01*
X334494Y6254D01*
X335247Y7236D01*
X335721Y8379D01*
X335882Y9606D01*
X335721Y10833D01*
X335247Y11976D01*
X334494Y12958D01*
X333512Y13712D01*
X332369Y14185D01*
X331142Y14347D01*
D02*
G37*
G36*
X341142D02*
X339915Y14185D01*
X338772Y13712D01*
X337790Y12958D01*
X337036Y11976D01*
X336563Y10833D01*
X336401Y9606D01*
X336563Y8379D01*
X337036Y7236D01*
X337790Y6254D01*
X338772Y5501D01*
X339915Y5027D01*
X341142Y4866D01*
X342369Y5027D01*
X343512Y5501D01*
X344494Y6254D01*
X345247Y7236D01*
X345721Y8379D01*
X345882Y9606D01*
X345721Y10833D01*
X345247Y11976D01*
X344494Y12958D01*
X343512Y13712D01*
X342369Y14185D01*
X341142Y14347D01*
D02*
G37*
G36*
X311142D02*
X309915Y14185D01*
X308771Y13712D01*
X307790Y12958D01*
X307036Y11976D01*
X306563Y10833D01*
X306401Y9606D01*
X306563Y8379D01*
X307036Y7236D01*
X307790Y6254D01*
X308771Y5501D01*
X309915Y5027D01*
X311142Y4866D01*
X312369Y5027D01*
X313512Y5501D01*
X314494Y6254D01*
X315247Y7236D01*
X315721Y8379D01*
X315882Y9606D01*
X315721Y10833D01*
X315247Y11976D01*
X314494Y12958D01*
X313512Y13712D01*
X312369Y14185D01*
X311142Y14347D01*
D02*
G37*
G36*
X321142D02*
X319915Y14185D01*
X318772Y13712D01*
X317790Y12958D01*
X317036Y11976D01*
X316563Y10833D01*
X316401Y9606D01*
X316563Y8379D01*
X317036Y7236D01*
X317790Y6254D01*
X318772Y5501D01*
X319915Y5027D01*
X321142Y4866D01*
X322369Y5027D01*
X323512Y5501D01*
X324494Y6254D01*
X325247Y7236D01*
X325721Y8379D01*
X325882Y9606D01*
X325721Y10833D01*
X325247Y11976D01*
X324494Y12958D01*
X323512Y13712D01*
X322369Y14185D01*
X321142Y14347D01*
D02*
G37*
G36*
X351142D02*
X349915Y14185D01*
X348772Y13712D01*
X347790Y12958D01*
X347036Y11976D01*
X346563Y10833D01*
X346401Y9606D01*
X346563Y8379D01*
X347036Y7236D01*
X347790Y6254D01*
X348772Y5501D01*
X349915Y5027D01*
X351142Y4866D01*
X352369Y5027D01*
X353512Y5501D01*
X354494Y6254D01*
X355247Y7236D01*
X355721Y8379D01*
X355882Y9606D01*
X355721Y10833D01*
X355247Y11976D01*
X354494Y12958D01*
X353512Y13712D01*
X352369Y14185D01*
X351142Y14347D01*
D02*
G37*
G36*
X381142D02*
X379915Y14185D01*
X378771Y13712D01*
X377790Y12958D01*
X377036Y11976D01*
X376563Y10833D01*
X376401Y9606D01*
X376563Y8379D01*
X377036Y7236D01*
X377790Y6254D01*
X378771Y5501D01*
X379915Y5027D01*
X381142Y4866D01*
X382369Y5027D01*
X383512Y5501D01*
X384494Y6254D01*
X385247Y7236D01*
X385721Y8379D01*
X385882Y9606D01*
X385721Y10833D01*
X385247Y11976D01*
X384494Y12958D01*
X383512Y13712D01*
X382369Y14185D01*
X381142Y14347D01*
D02*
G37*
G36*
X236142Y8899D02*
X233332Y6090D01*
X233872Y5675D01*
X234967Y5222D01*
X236142Y5067D01*
X237316Y5222D01*
X238411Y5675D01*
X238951Y6090D01*
X236142Y8899D01*
D02*
G37*
G36*
X361142Y14347D02*
X359915Y14185D01*
X358771Y13712D01*
X357790Y12958D01*
X357036Y11976D01*
X356563Y10833D01*
X356401Y9606D01*
X356563Y8379D01*
X357036Y7236D01*
X357790Y6254D01*
X358771Y5501D01*
X359915Y5027D01*
X361142Y4866D01*
X362369Y5027D01*
X363512Y5501D01*
X364494Y6254D01*
X365247Y7236D01*
X365721Y8379D01*
X365882Y9606D01*
X365721Y10833D01*
X365247Y11976D01*
X364494Y12958D01*
X363512Y13712D01*
X362369Y14185D01*
X361142Y14347D01*
D02*
G37*
G36*
X371142D02*
X369915Y14185D01*
X368772Y13712D01*
X367790Y12958D01*
X367036Y11976D01*
X366563Y10833D01*
X366401Y9606D01*
X366563Y8379D01*
X367036Y7236D01*
X367790Y6254D01*
X368772Y5501D01*
X369915Y5027D01*
X371142Y4866D01*
X372369Y5027D01*
X373512Y5501D01*
X374494Y6254D01*
X375247Y7236D01*
X375721Y8379D01*
X375882Y9606D01*
X375721Y10833D01*
X375247Y11976D01*
X374494Y12958D01*
X373512Y13712D01*
X372369Y14185D01*
X371142Y14347D01*
D02*
G37*
G36*
X226142D02*
X224915Y14185D01*
X223772Y13712D01*
X222790Y12958D01*
X222036Y11976D01*
X221563Y10833D01*
X221401Y9606D01*
X221563Y8379D01*
X222036Y7236D01*
X222790Y6254D01*
X223772Y5501D01*
X224915Y5027D01*
X226142Y4866D01*
X227369Y5027D01*
X228512Y5501D01*
X229494Y6254D01*
X230247Y7236D01*
X230721Y8379D01*
X230882Y9606D01*
X230721Y10833D01*
X230247Y11976D01*
X229494Y12958D01*
X228512Y13712D01*
X227369Y14185D01*
X226142Y14347D01*
D02*
G37*
G36*
X246142D02*
X244915Y14185D01*
X243772Y13712D01*
X242790Y12958D01*
X242036Y11976D01*
X241563Y10833D01*
X241401Y9606D01*
X241563Y8379D01*
X242036Y7236D01*
X242790Y6254D01*
X243772Y5501D01*
X244915Y5027D01*
X246142Y4866D01*
X247369Y5027D01*
X248512Y5501D01*
X249494Y6254D01*
X250247Y7236D01*
X250721Y8379D01*
X250882Y9606D01*
X250721Y10833D01*
X250247Y11976D01*
X249494Y12958D01*
X248512Y13712D01*
X247369Y14185D01*
X246142Y14347D01*
D02*
G37*
G36*
X206142D02*
X204915Y14185D01*
X203771Y13712D01*
X202790Y12958D01*
X202036Y11976D01*
X201563Y10833D01*
X201401Y9606D01*
X201563Y8379D01*
X202036Y7236D01*
X202790Y6254D01*
X203771Y5501D01*
X204915Y5027D01*
X206142Y4866D01*
X207369Y5027D01*
X208512Y5501D01*
X209494Y6254D01*
X210247Y7236D01*
X210721Y8379D01*
X210882Y9606D01*
X210721Y10833D01*
X210247Y11976D01*
X209494Y12958D01*
X208512Y13712D01*
X207369Y14185D01*
X206142Y14347D01*
D02*
G37*
G36*
X216142D02*
X214915Y14185D01*
X213772Y13712D01*
X212790Y12958D01*
X212036Y11976D01*
X211563Y10833D01*
X211401Y9606D01*
X211563Y8379D01*
X212036Y7236D01*
X212790Y6254D01*
X213772Y5501D01*
X214915Y5027D01*
X216142Y4866D01*
X217369Y5027D01*
X218512Y5501D01*
X219494Y6254D01*
X220247Y7236D01*
X220721Y8379D01*
X220882Y9606D01*
X220721Y10833D01*
X220247Y11976D01*
X219494Y12958D01*
X218512Y13712D01*
X217369Y14185D01*
X216142Y14347D01*
D02*
G37*
G36*
X256142D02*
X254915Y14185D01*
X253771Y13712D01*
X252790Y12958D01*
X252036Y11976D01*
X251563Y10833D01*
X251401Y9606D01*
X251563Y8379D01*
X252036Y7236D01*
X252790Y6254D01*
X253771Y5501D01*
X254915Y5027D01*
X256142Y4866D01*
X257369Y5027D01*
X258512Y5501D01*
X259494Y6254D01*
X260247Y7236D01*
X260721Y8379D01*
X260882Y9606D01*
X260721Y10833D01*
X260247Y11976D01*
X259494Y12958D01*
X258512Y13712D01*
X257369Y14185D01*
X256142Y14347D01*
D02*
G37*
G36*
X286142D02*
X284915Y14185D01*
X283771Y13712D01*
X282790Y12958D01*
X282036Y11976D01*
X281563Y10833D01*
X281401Y9606D01*
X281563Y8379D01*
X282036Y7236D01*
X282790Y6254D01*
X283771Y5501D01*
X284915Y5027D01*
X286142Y4866D01*
X287369Y5027D01*
X288512Y5501D01*
X289494Y6254D01*
X290247Y7236D01*
X290721Y8379D01*
X290882Y9606D01*
X290721Y10833D01*
X290247Y11976D01*
X289494Y12958D01*
X288512Y13712D01*
X287369Y14185D01*
X286142Y14347D01*
D02*
G37*
G36*
X296142D02*
X294915Y14185D01*
X293772Y13712D01*
X292790Y12958D01*
X292036Y11976D01*
X291563Y10833D01*
X291401Y9606D01*
X291563Y8379D01*
X292036Y7236D01*
X292790Y6254D01*
X293772Y5501D01*
X294915Y5027D01*
X296142Y4866D01*
X297369Y5027D01*
X298512Y5501D01*
X299494Y6254D01*
X300247Y7236D01*
X300721Y8379D01*
X300882Y9606D01*
X300721Y10833D01*
X300247Y11976D01*
X299494Y12958D01*
X298512Y13712D01*
X297369Y14185D01*
X296142Y14347D01*
D02*
G37*
G36*
X266142D02*
X264915Y14185D01*
X263772Y13712D01*
X262790Y12958D01*
X262036Y11976D01*
X261563Y10833D01*
X261401Y9606D01*
X261563Y8379D01*
X262036Y7236D01*
X262790Y6254D01*
X263772Y5501D01*
X264915Y5027D01*
X266142Y4866D01*
X267369Y5027D01*
X268512Y5501D01*
X269494Y6254D01*
X270247Y7236D01*
X270721Y8379D01*
X270882Y9606D01*
X270721Y10833D01*
X270247Y11976D01*
X269494Y12958D01*
X268512Y13712D01*
X267369Y14185D01*
X266142Y14347D01*
D02*
G37*
G36*
X276142D02*
X274915Y14185D01*
X273772Y13712D01*
X272790Y12958D01*
X272036Y11976D01*
X271563Y10833D01*
X271401Y9606D01*
X271563Y8379D01*
X272036Y7236D01*
X272790Y6254D01*
X273772Y5501D01*
X274915Y5027D01*
X276142Y4866D01*
X277369Y5027D01*
X278512Y5501D01*
X279494Y6254D01*
X280247Y7236D01*
X280721Y8379D01*
X280882Y9606D01*
X280721Y10833D01*
X280247Y11976D01*
X279494Y12958D01*
X278512Y13712D01*
X277369Y14185D01*
X276142Y14347D01*
D02*
G37*
G36*
X256536Y50567D02*
X255309Y50406D01*
X254165Y49932D01*
X253184Y49179D01*
X252430Y48197D01*
X251957Y47054D01*
X251795Y45827D01*
X251957Y44600D01*
X252430Y43457D01*
X253184Y42475D01*
X254165Y41721D01*
X255309Y41248D01*
X256536Y41086D01*
X257763Y41248D01*
X258906Y41721D01*
X259888Y42475D01*
X260641Y43457D01*
X261115Y44600D01*
X261276Y45827D01*
X261115Y47054D01*
X260641Y48197D01*
X259888Y49179D01*
X258906Y49932D01*
X257763Y50406D01*
X256536Y50567D01*
D02*
G37*
G36*
X266536D02*
X265309Y50406D01*
X264165Y49932D01*
X263183Y49179D01*
X262430Y48197D01*
X261957Y47054D01*
X261795Y45827D01*
X261957Y44600D01*
X262430Y43457D01*
X263183Y42475D01*
X264165Y41721D01*
X265309Y41248D01*
X266536Y41086D01*
X267762Y41248D01*
X268906Y41721D01*
X269888Y42475D01*
X270641Y43457D01*
X271115Y44600D01*
X271276Y45827D01*
X271115Y47054D01*
X270641Y48197D01*
X269888Y49179D01*
X268906Y49932D01*
X267762Y50406D01*
X266536Y50567D01*
D02*
G37*
G36*
X226536D02*
X225309Y50406D01*
X224165Y49932D01*
X223183Y49179D01*
X222430Y48197D01*
X221957Y47054D01*
X221795Y45827D01*
X221957Y44600D01*
X222430Y43457D01*
X223183Y42475D01*
X224165Y41721D01*
X225309Y41248D01*
X226536Y41086D01*
X227763Y41248D01*
X228906Y41721D01*
X229888Y42475D01*
X230641Y43457D01*
X231115Y44600D01*
X231276Y45827D01*
X231115Y47054D01*
X230641Y48197D01*
X229888Y49179D01*
X228906Y49932D01*
X227763Y50406D01*
X226536Y50567D01*
D02*
G37*
G36*
X246536D02*
X245309Y50406D01*
X244165Y49932D01*
X243183Y49179D01*
X242430Y48197D01*
X241957Y47054D01*
X241795Y45827D01*
X241957Y44600D01*
X242430Y43457D01*
X243183Y42475D01*
X244165Y41721D01*
X245309Y41248D01*
X246536Y41086D01*
X247762Y41248D01*
X248906Y41721D01*
X249888Y42475D01*
X250641Y43457D01*
X251115Y44600D01*
X251276Y45827D01*
X251115Y47054D01*
X250641Y48197D01*
X249888Y49179D01*
X248906Y49932D01*
X247762Y50406D01*
X246536Y50567D01*
D02*
G37*
G36*
X276536D02*
X275309Y50406D01*
X274165Y49932D01*
X273183Y49179D01*
X272430Y48197D01*
X271957Y47054D01*
X271795Y45827D01*
X271957Y44600D01*
X272430Y43457D01*
X273183Y42475D01*
X274165Y41721D01*
X275309Y41248D01*
X276536Y41086D01*
X277763Y41248D01*
X278906Y41721D01*
X279888Y42475D01*
X280641Y43457D01*
X281115Y44600D01*
X281276Y45827D01*
X281115Y47054D01*
X280641Y48197D01*
X279888Y49179D01*
X278906Y49932D01*
X277763Y50406D01*
X276536Y50567D01*
D02*
G37*
G36*
X324685D02*
X323458Y50406D01*
X322315Y49932D01*
X321333Y49179D01*
X320580Y48197D01*
X320106Y47054D01*
X319945Y45827D01*
X320106Y44600D01*
X320580Y43457D01*
X321333Y42475D01*
X322315Y41721D01*
X323458Y41248D01*
X324685Y41086D01*
X325912Y41248D01*
X327056Y41721D01*
X328037Y42475D01*
X328791Y43457D01*
X329264Y44600D01*
X329426Y45827D01*
X329264Y47054D01*
X328791Y48197D01*
X328037Y49179D01*
X327056Y49932D01*
X325912Y50406D01*
X324685Y50567D01*
D02*
G37*
G36*
X334685D02*
X333458Y50406D01*
X332315Y49932D01*
X331333Y49179D01*
X330580Y48197D01*
X330106Y47054D01*
X329945Y45827D01*
X330106Y44600D01*
X330580Y43457D01*
X331333Y42475D01*
X332315Y41721D01*
X333458Y41248D01*
X334685Y41086D01*
X335912Y41248D01*
X337055Y41721D01*
X338037Y42475D01*
X338791Y43457D01*
X339264Y44600D01*
X339426Y45827D01*
X339264Y47054D01*
X338791Y48197D01*
X338037Y49179D01*
X337055Y49932D01*
X335912Y50406D01*
X334685Y50567D01*
D02*
G37*
G36*
X286536D02*
X285309Y50406D01*
X284165Y49932D01*
X283184Y49179D01*
X282430Y48197D01*
X281957Y47054D01*
X281795Y45827D01*
X281957Y44600D01*
X282430Y43457D01*
X283184Y42475D01*
X284165Y41721D01*
X285309Y41248D01*
X286536Y41086D01*
X287762Y41248D01*
X288906Y41721D01*
X289888Y42475D01*
X290641Y43457D01*
X291115Y44600D01*
X291276Y45827D01*
X291115Y47054D01*
X290641Y48197D01*
X289888Y49179D01*
X288906Y49932D01*
X287762Y50406D01*
X286536Y50567D01*
D02*
G37*
G36*
X314685D02*
X313458Y50406D01*
X312315Y49932D01*
X311333Y49179D01*
X310580Y48197D01*
X310106Y47054D01*
X309945Y45827D01*
X310106Y44600D01*
X310580Y43457D01*
X311333Y42475D01*
X312315Y41721D01*
X313458Y41248D01*
X314685Y41086D01*
X315912Y41248D01*
X317056Y41721D01*
X318037Y42475D01*
X318791Y43457D01*
X319264Y44600D01*
X319426Y45827D01*
X319264Y47054D01*
X318791Y48197D01*
X318037Y49179D01*
X317056Y49932D01*
X315912Y50406D01*
X314685Y50567D01*
D02*
G37*
G36*
X236142Y14145D02*
X234967Y13990D01*
X233872Y13537D01*
X233332Y13123D01*
X236142Y10313D01*
X238951Y13123D01*
X238411Y13537D01*
X237316Y13990D01*
X236142Y14145D01*
D02*
G37*
G36*
X82835Y32300D02*
X81608Y32138D01*
X80464Y31664D01*
X79483Y30911D01*
X78729Y29929D01*
X78256Y28786D01*
X78094Y27559D01*
X78256Y26332D01*
X78729Y25189D01*
X79483Y24207D01*
X80464Y23454D01*
X81608Y22980D01*
X82835Y22818D01*
X84061Y22980D01*
X85205Y23454D01*
X86187Y24207D01*
X86940Y25189D01*
X87414Y26332D01*
X87575Y27559D01*
X87414Y28786D01*
X86940Y29929D01*
X86187Y30911D01*
X85205Y31664D01*
X84061Y32138D01*
X82835Y32300D01*
D02*
G37*
G36*
X232625Y12416D02*
X232211Y11876D01*
X231758Y10781D01*
X231603Y9606D01*
X231758Y8432D01*
X232211Y7337D01*
X232625Y6797D01*
X235435Y9606D01*
X232625Y12416D01*
D02*
G37*
G36*
X239658D02*
X236849Y9606D01*
X239658Y6797D01*
X240072Y7337D01*
X240526Y8432D01*
X240681Y9606D01*
X240526Y10781D01*
X240072Y11876D01*
X239658Y12416D01*
D02*
G37*
G36*
X77535Y32259D02*
X68135D01*
Y22859D01*
X77535D01*
Y32259D01*
D02*
G37*
G36*
X206536Y50567D02*
X205309Y50406D01*
X204165Y49932D01*
X203184Y49179D01*
X202430Y48197D01*
X201957Y47054D01*
X201795Y45827D01*
X201957Y44600D01*
X202430Y43457D01*
X203184Y42475D01*
X204165Y41721D01*
X205309Y41248D01*
X206536Y41086D01*
X207763Y41248D01*
X208906Y41721D01*
X209888Y42475D01*
X210641Y43457D01*
X211115Y44600D01*
X211276Y45827D01*
X211115Y47054D01*
X210641Y48197D01*
X209888Y49179D01*
X208906Y49932D01*
X207763Y50406D01*
X206536Y50567D01*
D02*
G37*
G36*
X216536D02*
X215309Y50406D01*
X214165Y49932D01*
X213183Y49179D01*
X212430Y48197D01*
X211957Y47054D01*
X211795Y45827D01*
X211957Y44600D01*
X212430Y43457D01*
X213183Y42475D01*
X214165Y41721D01*
X215309Y41248D01*
X216536Y41086D01*
X217762Y41248D01*
X218906Y41721D01*
X219888Y42475D01*
X220641Y43457D01*
X221115Y44600D01*
X221276Y45827D01*
X221115Y47054D01*
X220641Y48197D01*
X219888Y49179D01*
X218906Y49932D01*
X217762Y50406D01*
X216536Y50567D01*
D02*
G37*
G36*
X109173Y32693D02*
X107946Y32532D01*
X106803Y32058D01*
X105821Y31305D01*
X105068Y30323D01*
X104594Y29180D01*
X104433Y27953D01*
X104594Y26726D01*
X105068Y25583D01*
X105821Y24601D01*
X106803Y23847D01*
X107946Y23374D01*
X109173Y23212D01*
X110400Y23374D01*
X111544Y23847D01*
X112525Y24601D01*
X113279Y25583D01*
X113752Y26726D01*
X113914Y27953D01*
X113752Y29180D01*
X113279Y30323D01*
X112525Y31305D01*
X111544Y32058D01*
X110400Y32532D01*
X109173Y32693D01*
D02*
G37*
G36*
X119173D02*
X117946Y32532D01*
X116803Y32058D01*
X115821Y31305D01*
X115068Y30323D01*
X114594Y29180D01*
X114433Y27953D01*
X114594Y26726D01*
X115068Y25583D01*
X115821Y24601D01*
X116803Y23847D01*
X117946Y23374D01*
X119173Y23212D01*
X120400Y23374D01*
X121544Y23847D01*
X122525Y24601D01*
X123279Y25583D01*
X123752Y26726D01*
X123914Y27953D01*
X123752Y29180D01*
X123279Y30323D01*
X122525Y31305D01*
X121544Y32058D01*
X120400Y32532D01*
X119173Y32693D01*
D02*
G37*
G36*
X275984Y268371D02*
X257480D01*
X256778Y268231D01*
X256183Y267833D01*
X253427Y265077D01*
X253029Y264482D01*
X252889Y263779D01*
Y262625D01*
X252829Y262536D01*
X252248Y262480D01*
X252239Y262484D01*
X252174Y262568D01*
X251307Y263234D01*
X250297Y263652D01*
X249213Y263795D01*
X248129Y263652D01*
X247118Y263234D01*
X246251Y262568D01*
X245585Y261701D01*
X245478Y261442D01*
X236378D01*
X235676Y261302D01*
X235080Y260904D01*
X203820Y229644D01*
X203422Y229049D01*
X203283Y228346D01*
Y221215D01*
X203024Y221108D01*
X202156Y220442D01*
X201491Y219575D01*
X201072Y218564D01*
X200929Y217480D01*
X201072Y216396D01*
X201491Y215386D01*
X202156Y214519D01*
X203024Y213853D01*
X204034Y213435D01*
X205118Y213292D01*
X206202Y213435D01*
X207212Y213853D01*
X207901Y214381D01*
X208401Y214151D01*
Y213359D01*
X206675Y211633D01*
X200965D01*
Y203328D01*
X209271D01*
Y209038D01*
X211534Y211301D01*
X211932Y211896D01*
X212071Y212598D01*
Y213953D01*
X212572Y214200D01*
X213024Y213853D01*
X214034Y213435D01*
X215118Y213292D01*
X216202Y213435D01*
X217212Y213853D01*
X218080Y214519D01*
X218745Y215386D01*
X219164Y216396D01*
X219307Y217480D01*
X219164Y218564D01*
X219057Y218824D01*
X238162Y237929D01*
X271654D01*
X272356Y238068D01*
X272951Y238466D01*
X277676Y243191D01*
X278074Y243786D01*
X278213Y244488D01*
Y255906D01*
X278074Y256608D01*
X277676Y257203D01*
X273345Y261534D01*
X272750Y261932D01*
X272047Y262071D01*
X262555D01*
X262174Y262568D01*
X261307Y263234D01*
X260297Y263652D01*
X259213Y263795D01*
X258128Y263652D01*
X257738Y263490D01*
X257454Y263914D01*
X258241Y264700D01*
X275224D01*
X282023Y257901D01*
Y240918D01*
X274437Y233331D01*
X239134D01*
X238432Y233192D01*
X237836Y232794D01*
X216461Y211419D01*
X216202Y211526D01*
X215118Y211669D01*
X214034Y211526D01*
X213024Y211108D01*
X212156Y210442D01*
X211491Y209575D01*
X211072Y208564D01*
X210929Y207480D01*
X211072Y206396D01*
X211491Y205386D01*
X212156Y204519D01*
X213024Y203853D01*
X214034Y203434D01*
X215118Y203292D01*
X216202Y203434D01*
X217212Y203853D01*
X218080Y204519D01*
X218745Y205386D01*
X219164Y206396D01*
X219307Y207480D01*
X219164Y208564D01*
X219057Y208823D01*
X239894Y229661D01*
X275197D01*
X275899Y229801D01*
X276495Y230198D01*
X285156Y238860D01*
X285554Y239455D01*
X285694Y240158D01*
Y258661D01*
X285554Y259364D01*
X285156Y259959D01*
X277282Y267833D01*
X276687Y268231D01*
X276570Y268254D01*
X275984Y268371D01*
D02*
G37*
G36*
X375748Y231906D02*
X374521Y231744D01*
X373378Y231271D01*
X372396Y230517D01*
X371642Y229536D01*
X371169Y228392D01*
X371007Y227165D01*
X371169Y225938D01*
X371642Y224795D01*
X372396Y223813D01*
X373378Y223060D01*
X374521Y222586D01*
X375748Y222425D01*
X376975Y222586D01*
X378118Y223060D01*
X379100Y223813D01*
X379853Y224795D01*
X380327Y225938D01*
X380488Y227165D01*
X380327Y228392D01*
X379853Y229536D01*
X379100Y230517D01*
X378118Y231271D01*
X376975Y231744D01*
X375748Y231906D01*
D02*
G37*
G36*
X291142Y204145D02*
X289967Y203990D01*
X288872Y203537D01*
X288333Y203123D01*
X291142Y200313D01*
X293951Y203123D01*
X293411Y203537D01*
X292317Y203990D01*
X291142Y204145D01*
D02*
G37*
G36*
X301142D02*
X299967Y203990D01*
X298872Y203537D01*
X298333Y203123D01*
X301142Y200313D01*
X303951Y203123D01*
X303411Y203537D01*
X302316Y203990D01*
X301142Y204145D01*
D02*
G37*
G36*
X194095Y244100D02*
X192634Y243956D01*
X191230Y243530D01*
X189936Y242839D01*
X188801Y241908D01*
X187870Y240773D01*
X187178Y239479D01*
X186752Y238075D01*
X186608Y236614D01*
X186752Y235154D01*
X187178Y233749D01*
X187870Y232455D01*
X188801Y231321D01*
X189936Y230390D01*
X191230Y229698D01*
X192634Y229272D01*
X194095Y229128D01*
X195555Y229272D01*
X196959Y229698D01*
X198254Y230390D01*
X199388Y231321D01*
X200319Y232455D01*
X201011Y233749D01*
X201437Y235154D01*
X201581Y236614D01*
X201437Y238075D01*
X201011Y239479D01*
X200319Y240773D01*
X199388Y241908D01*
X198254Y242839D01*
X196959Y243530D01*
X195555Y243956D01*
X194095Y244100D01*
D02*
G37*
G36*
X156772Y240961D02*
X155545Y240800D01*
X154401Y240326D01*
X153419Y239573D01*
X152666Y238591D01*
X152192Y237448D01*
X152031Y236221D01*
X152192Y234994D01*
X152666Y233850D01*
X153419Y232869D01*
X154401Y232115D01*
X155545Y231642D01*
X156772Y231480D01*
X157999Y231642D01*
X159142Y232115D01*
X160124Y232869D01*
X160877Y233850D01*
X161351Y234994D01*
X161512Y236221D01*
X161351Y237448D01*
X160877Y238591D01*
X160124Y239573D01*
X159142Y240326D01*
X157999Y240800D01*
X156772Y240961D01*
D02*
G37*
G36*
X385748Y231906D02*
X384521Y231744D01*
X383378Y231271D01*
X382396Y230517D01*
X381643Y229536D01*
X381169Y228392D01*
X381007Y227165D01*
X381169Y225938D01*
X381643Y224795D01*
X382396Y223813D01*
X383378Y223060D01*
X384521Y222586D01*
X385748Y222425D01*
X386975Y222586D01*
X388118Y223060D01*
X389100Y223813D01*
X389853Y224795D01*
X390327Y225938D01*
X390489Y227165D01*
X390327Y228392D01*
X389853Y229536D01*
X389100Y230517D01*
X388118Y231271D01*
X386975Y231744D01*
X385748Y231906D01*
D02*
G37*
G36*
X370448Y231865D02*
X361048D01*
Y222465D01*
X370448D01*
Y231865D01*
D02*
G37*
G36*
X304658Y202416D02*
X301849Y199606D01*
X304658Y196797D01*
X305072Y197337D01*
X305526Y198432D01*
X305681Y199606D01*
X305526Y200781D01*
X305072Y201876D01*
X304658Y202416D01*
D02*
G37*
G36*
X381142Y204347D02*
X379915Y204185D01*
X378771Y203712D01*
X377790Y202958D01*
X377036Y201976D01*
X376563Y200833D01*
X376401Y199606D01*
X376563Y198379D01*
X377036Y197236D01*
X377790Y196254D01*
X378771Y195501D01*
X379915Y195027D01*
X381142Y194866D01*
X382369Y195027D01*
X383512Y195501D01*
X384494Y196254D01*
X385247Y197236D01*
X385721Y198379D01*
X385882Y199606D01*
X385721Y200833D01*
X385247Y201976D01*
X384494Y202958D01*
X383512Y203712D01*
X382369Y204185D01*
X381142Y204347D01*
D02*
G37*
G36*
X291142Y198899D02*
X288333Y196090D01*
X288872Y195676D01*
X289967Y195222D01*
X291142Y195067D01*
X292317Y195222D01*
X293411Y195676D01*
X293951Y196090D01*
X291142Y198899D01*
D02*
G37*
G36*
X361142Y204347D02*
X359915Y204185D01*
X358771Y203712D01*
X357790Y202958D01*
X357036Y201976D01*
X356563Y200833D01*
X356401Y199606D01*
X356563Y198379D01*
X357036Y197236D01*
X357790Y196254D01*
X358771Y195501D01*
X359915Y195027D01*
X361142Y194866D01*
X362369Y195027D01*
X363512Y195501D01*
X364494Y196254D01*
X365247Y197236D01*
X365721Y198379D01*
X365882Y199606D01*
X365721Y200833D01*
X365247Y201976D01*
X364494Y202958D01*
X363512Y203712D01*
X362369Y204185D01*
X361142Y204347D01*
D02*
G37*
G36*
X371142D02*
X369915Y204185D01*
X368772Y203712D01*
X367790Y202958D01*
X367036Y201976D01*
X366563Y200833D01*
X366401Y199606D01*
X366563Y198379D01*
X367036Y197236D01*
X367790Y196254D01*
X368772Y195501D01*
X369915Y195027D01*
X371142Y194866D01*
X372369Y195027D01*
X373512Y195501D01*
X374494Y196254D01*
X375247Y197236D01*
X375721Y198379D01*
X375882Y199606D01*
X375721Y200833D01*
X375247Y201976D01*
X374494Y202958D01*
X373512Y203712D01*
X372369Y204185D01*
X371142Y204347D01*
D02*
G37*
G36*
X294658Y202416D02*
X291849Y199606D01*
X294658Y196797D01*
X295073Y197337D01*
X295526Y198432D01*
X295681Y199606D01*
X295526Y200781D01*
X295073Y201876D01*
X294658Y202416D01*
D02*
G37*
G36*
X297625D02*
X297211Y201876D01*
X296758Y200781D01*
X296603Y199606D01*
X296758Y198432D01*
X297211Y197337D01*
X297625Y196797D01*
X300435Y199606D01*
X297625Y202416D01*
D02*
G37*
G36*
X301142Y198899D02*
X298333Y196090D01*
X298872Y195676D01*
X299967Y195222D01*
X301142Y195067D01*
X302316Y195222D01*
X303411Y195676D01*
X303951Y196090D01*
X301142Y198899D01*
D02*
G37*
G36*
X287625Y202416D02*
X287211Y201876D01*
X286758Y200781D01*
X286603Y199606D01*
X286758Y198432D01*
X287211Y197337D01*
X287625Y196797D01*
X290435Y199606D01*
X287625Y202416D01*
D02*
G37*
G36*
X181472Y240920D02*
X172072D01*
Y231521D01*
X181472D01*
Y240920D01*
D02*
G37*
G36*
X74318Y244542D02*
X73904Y244002D01*
X73450Y242907D01*
X73296Y241732D01*
X73450Y240558D01*
X73904Y239463D01*
X74318Y238923D01*
X77127Y241732D01*
X74318Y244542D01*
D02*
G37*
G36*
X81351D02*
X78542Y241732D01*
X81351Y238923D01*
X81765Y239463D01*
X82219Y240558D01*
X82373Y241732D01*
X82219Y242907D01*
X81765Y244002D01*
X81351Y244542D01*
D02*
G37*
G36*
X77835Y241025D02*
X75025Y238216D01*
X75565Y237802D01*
X76660Y237348D01*
X77835Y237193D01*
X79009Y237348D01*
X80104Y237802D01*
X80644Y238216D01*
X77835Y241025D01*
D02*
G37*
G36*
X119567D02*
X116758Y238216D01*
X117297Y237802D01*
X118392Y237348D01*
X119567Y237193D01*
X120742Y237348D01*
X121836Y237802D01*
X122376Y238216D01*
X119567Y241025D01*
D02*
G37*
G36*
X77835Y246271D02*
X76660Y246116D01*
X75565Y245663D01*
X75025Y245249D01*
X77835Y242439D01*
X80644Y245249D01*
X80104Y245663D01*
X79009Y246116D01*
X77835Y246271D01*
D02*
G37*
G36*
X119567D02*
X118392Y246116D01*
X117297Y245663D01*
X116758Y245249D01*
X119567Y242439D01*
X122376Y245249D01*
X121836Y245663D01*
X120742Y246116D01*
X119567Y246271D01*
D02*
G37*
G36*
X116051Y244542D02*
X115636Y244002D01*
X115183Y242907D01*
X115028Y241732D01*
X115183Y240558D01*
X115636Y239463D01*
X116051Y238923D01*
X118860Y241732D01*
X116051Y244542D01*
D02*
G37*
G36*
X123083D02*
X120274Y241732D01*
X123083Y238923D01*
X123498Y239463D01*
X123951Y240558D01*
X124106Y241732D01*
X123951Y242907D01*
X123498Y244002D01*
X123083Y244542D01*
D02*
G37*
G36*
X109567Y246473D02*
X108340Y246311D01*
X107197Y245838D01*
X106215Y245084D01*
X105462Y244103D01*
X104988Y242959D01*
X104826Y241732D01*
X104988Y240505D01*
X105462Y239362D01*
X106215Y238380D01*
X107197Y237627D01*
X108340Y237153D01*
X109567Y236992D01*
X110794Y237153D01*
X111937Y237627D01*
X112919Y238380D01*
X113672Y239362D01*
X114146Y240505D01*
X114307Y241732D01*
X114146Y242959D01*
X113672Y244103D01*
X112919Y245084D01*
X111937Y245838D01*
X110794Y246311D01*
X109567Y246473D01*
D02*
G37*
G36*
X375748Y241906D02*
X374521Y241744D01*
X373378Y241271D01*
X372396Y240517D01*
X371642Y239536D01*
X371169Y238392D01*
X371007Y237165D01*
X371169Y235938D01*
X371642Y234795D01*
X372396Y233813D01*
X373378Y233060D01*
X374521Y232586D01*
X375748Y232425D01*
X376975Y232586D01*
X378118Y233060D01*
X379100Y233813D01*
X379853Y234795D01*
X380327Y235938D01*
X380488Y237165D01*
X380327Y238392D01*
X379853Y239536D01*
X379100Y240517D01*
X378118Y241271D01*
X376975Y241744D01*
X375748Y241906D01*
D02*
G37*
G36*
X385748D02*
X384521Y241744D01*
X383378Y241271D01*
X382396Y240517D01*
X381643Y239536D01*
X381169Y238392D01*
X381007Y237165D01*
X381169Y235938D01*
X381643Y234795D01*
X382396Y233813D01*
X383378Y233060D01*
X384521Y232586D01*
X385748Y232425D01*
X386975Y232586D01*
X388118Y233060D01*
X389100Y233813D01*
X389853Y234795D01*
X390327Y235938D01*
X390489Y237165D01*
X390327Y238392D01*
X389853Y239536D01*
X389100Y240517D01*
X388118Y241271D01*
X386975Y241744D01*
X385748Y241906D01*
D02*
G37*
G36*
X166772Y235513D02*
X163962Y232704D01*
X164502Y232290D01*
X165597Y231836D01*
X166772Y231682D01*
X167946Y231836D01*
X169041Y232290D01*
X169581Y232704D01*
X166772Y235513D01*
D02*
G37*
G36*
X365748Y241906D02*
X364521Y241744D01*
X363378Y241271D01*
X362396Y240517D01*
X361643Y239536D01*
X361169Y238392D01*
X361007Y237165D01*
X361169Y235938D01*
X361643Y234795D01*
X362396Y233813D01*
X363378Y233060D01*
X364521Y232586D01*
X365748Y232425D01*
X366975Y232586D01*
X368118Y233060D01*
X369100Y233813D01*
X369853Y234795D01*
X370327Y235938D01*
X370489Y237165D01*
X370327Y238392D01*
X369853Y239536D01*
X369100Y240517D01*
X368118Y241271D01*
X366975Y241744D01*
X365748Y241906D01*
D02*
G37*
G36*
X166772Y240759D02*
X165597Y240605D01*
X164502Y240151D01*
X163962Y239737D01*
X166772Y236928D01*
X169581Y239737D01*
X169041Y240151D01*
X167946Y240605D01*
X166772Y240759D01*
D02*
G37*
G36*
X67835Y246473D02*
X66608Y246311D01*
X65464Y245838D01*
X64482Y245084D01*
X63729Y244103D01*
X63256Y242959D01*
X63094Y241732D01*
X63256Y240505D01*
X63729Y239362D01*
X64482Y238380D01*
X65464Y237627D01*
X66608Y237153D01*
X67835Y236992D01*
X69061Y237153D01*
X70205Y237627D01*
X71187Y238380D01*
X71940Y239362D01*
X72414Y240505D01*
X72575Y241732D01*
X72414Y242959D01*
X71940Y244103D01*
X71187Y245084D01*
X70205Y245838D01*
X69061Y246311D01*
X67835Y246473D01*
D02*
G37*
G36*
X163255Y239030D02*
X162841Y238490D01*
X162387Y237395D01*
X162233Y236221D01*
X162387Y235046D01*
X162841Y233951D01*
X163255Y233411D01*
X166065Y236221D01*
X163255Y239030D01*
D02*
G37*
G36*
X170288D02*
X167479Y236221D01*
X170288Y233411D01*
X170702Y233951D01*
X171156Y235046D01*
X171310Y236221D01*
X171156Y237395D01*
X170702Y238490D01*
X170288Y239030D01*
D02*
G37*
G36*
X351142Y204347D02*
X349915Y204185D01*
X348772Y203712D01*
X347790Y202958D01*
X347036Y201976D01*
X346563Y200833D01*
X346401Y199606D01*
X346563Y198379D01*
X347036Y197236D01*
X347790Y196254D01*
X348772Y195501D01*
X349915Y195027D01*
X351142Y194866D01*
X352369Y195027D01*
X353512Y195501D01*
X354494Y196254D01*
X355247Y197236D01*
X355721Y198379D01*
X355882Y199606D01*
X355721Y200833D01*
X355247Y201976D01*
X354494Y202958D01*
X353512Y203712D01*
X352369Y204185D01*
X351142Y204347D01*
D02*
G37*
G36*
X380945Y149937D02*
X379718Y149776D01*
X378574Y149302D01*
X377593Y148549D01*
X376839Y147567D01*
X376366Y146424D01*
X376204Y145197D01*
X376366Y143970D01*
X376839Y142827D01*
X377593Y141845D01*
X378574Y141091D01*
X379718Y140618D01*
X380945Y140456D01*
X382172Y140618D01*
X383315Y141091D01*
X384297Y141845D01*
X385050Y142827D01*
X385524Y143970D01*
X385685Y145197D01*
X385524Y146424D01*
X385050Y147567D01*
X384297Y148549D01*
X383315Y149302D01*
X382172Y149776D01*
X380945Y149937D01*
D02*
G37*
G36*
X390945D02*
X389718Y149776D01*
X388575Y149302D01*
X387593Y148549D01*
X386839Y147567D01*
X386366Y146424D01*
X386204Y145197D01*
X386366Y143970D01*
X386839Y142827D01*
X387593Y141845D01*
X388575Y141091D01*
X389718Y140618D01*
X390945Y140456D01*
X392172Y140618D01*
X393315Y141091D01*
X394297Y141845D01*
X395050Y142827D01*
X395524Y143970D01*
X395685Y145197D01*
X395524Y146424D01*
X395050Y147567D01*
X394297Y148549D01*
X393315Y149302D01*
X392172Y149776D01*
X390945Y149937D01*
D02*
G37*
G36*
X380945Y139937D02*
X379718Y139776D01*
X378574Y139302D01*
X377593Y138549D01*
X376839Y137567D01*
X376366Y136424D01*
X376204Y135197D01*
X376366Y133970D01*
X376839Y132827D01*
X377593Y131845D01*
X378574Y131091D01*
X379718Y130618D01*
X380945Y130456D01*
X382172Y130618D01*
X383315Y131091D01*
X384297Y131845D01*
X385050Y132827D01*
X385524Y133970D01*
X385685Y135197D01*
X385524Y136424D01*
X385050Y137567D01*
X384297Y138549D01*
X383315Y139302D01*
X382172Y139776D01*
X380945Y139937D01*
D02*
G37*
G36*
X390945D02*
X389718Y139776D01*
X388575Y139302D01*
X387593Y138549D01*
X386839Y137567D01*
X386366Y136424D01*
X386204Y135197D01*
X386366Y133970D01*
X386839Y132827D01*
X387593Y131845D01*
X388575Y131091D01*
X389718Y130618D01*
X390945Y130456D01*
X392172Y130618D01*
X393315Y131091D01*
X394297Y131845D01*
X395050Y132827D01*
X395524Y133970D01*
X395685Y135197D01*
X395524Y136424D01*
X395050Y137567D01*
X394297Y138549D01*
X393315Y139302D01*
X392172Y139776D01*
X390945Y139937D01*
D02*
G37*
G36*
X171260Y148899D02*
X168450Y146090D01*
X168990Y145676D01*
X170085Y145222D01*
X171260Y145068D01*
X172435Y145222D01*
X173529Y145676D01*
X174069Y146090D01*
X171260Y148899D01*
D02*
G37*
G36*
X204740Y163679D02*
X201141Y160080D01*
X200787Y160433D01*
X200434Y160080D01*
X196835Y163679D01*
Y147345D01*
X200434Y150944D01*
X200787Y150591D01*
X201141Y150944D01*
X204740Y147345D01*
Y163679D01*
D02*
G37*
G36*
X204033Y164386D02*
X197542D01*
X200787Y161140D01*
X204033Y164386D01*
D02*
G37*
G36*
X200787Y149883D02*
X197542Y146638D01*
X204033D01*
X200787Y149883D01*
D02*
G37*
G36*
X167743Y152416D02*
X167329Y151876D01*
X166876Y150781D01*
X166721Y149606D01*
X166876Y148432D01*
X167329Y147337D01*
X167743Y146797D01*
X170553Y149606D01*
X167743Y152416D01*
D02*
G37*
G36*
X78631Y79893D02*
X75510Y76772D01*
X78631Y73651D01*
X79116Y74282D01*
X79613Y75483D01*
X79783Y76772D01*
X79613Y78061D01*
X79116Y79261D01*
X78631Y79893D01*
D02*
G37*
G36*
X175960Y144464D02*
X166560D01*
Y135064D01*
X168064D01*
Y129277D01*
X128597Y89810D01*
X119113D01*
Y95688D01*
X110808D01*
Y89810D01*
X78826D01*
X78467Y90278D01*
X77394Y91101D01*
X76144Y91619D01*
X74803Y91796D01*
X66929D01*
X65588Y91619D01*
X64338Y91101D01*
X63265Y90278D01*
X62442Y89205D01*
X61924Y87955D01*
X61748Y86614D01*
X61924Y85273D01*
X62442Y84024D01*
X63265Y82951D01*
X64338Y82127D01*
X64995Y81855D01*
Y81314D01*
X64439Y81084D01*
X63808Y80600D01*
X67283Y77125D01*
X66929Y76772D01*
X67283Y76418D01*
X63808Y72944D01*
X64439Y72459D01*
X65256Y72121D01*
Y71580D01*
X64439Y71241D01*
X63808Y70757D01*
X67283Y67283D01*
X66929Y66929D01*
X67283Y66575D01*
X63808Y63101D01*
X64439Y62617D01*
X64994Y62387D01*
Y61845D01*
X64338Y61574D01*
X63265Y60750D01*
X62442Y59677D01*
X61924Y58428D01*
X61748Y57087D01*
X61924Y55746D01*
X62442Y54496D01*
X63265Y53423D01*
X64338Y52600D01*
X65588Y52082D01*
X66929Y51905D01*
X74803D01*
X76144Y52082D01*
X77394Y52600D01*
X78467Y53423D01*
X79290Y54496D01*
X79808Y55746D01*
X79984Y57087D01*
X79808Y58428D01*
X79290Y59677D01*
X78467Y60750D01*
X77394Y61574D01*
X76738Y61845D01*
Y62387D01*
X77293Y62617D01*
X77924Y63101D01*
X74450Y66575D01*
X74803Y66929D01*
X74450Y67283D01*
X77924Y70757D01*
X77293Y71241D01*
X76476Y71580D01*
Y72121D01*
X77293Y72459D01*
X77924Y72944D01*
X74450Y76418D01*
X74803Y76772D01*
X74450Y77125D01*
X77924Y80600D01*
X77293Y81084D01*
X76738Y81314D01*
Y81855D01*
X77394Y82127D01*
X78467Y82951D01*
X78826Y83418D01*
X110808D01*
Y77540D01*
X119113D01*
Y83418D01*
X129921D01*
X130452Y83488D01*
X139548Y74392D01*
X139548Y70060D01*
X139748Y69643D01*
Y64668D01*
X142363Y67283D01*
X143070Y66576D01*
X140455Y63961D01*
X146159D01*
X143544Y66576D01*
X144251Y67283D01*
X146866Y64668D01*
Y69643D01*
X147066Y70060D01*
X147066Y70315D01*
Y76397D01*
X142734D01*
X133729Y85402D01*
Y85902D01*
X173520Y125693D01*
X174028Y126355D01*
X174347Y127126D01*
X174456Y127953D01*
Y135064D01*
X175960D01*
Y144464D01*
D02*
G37*
G36*
X78631Y70050D02*
X75510Y66929D01*
X78631Y63808D01*
X79116Y64439D01*
X79613Y65640D01*
X79783Y66929D01*
X79613Y68218D01*
X79116Y69419D01*
X78631Y70050D01*
D02*
G37*
G36*
X63101Y79893D02*
X62617Y79261D01*
X62119Y78061D01*
X61950Y76772D01*
X62119Y75483D01*
X62617Y74282D01*
X63101Y73651D01*
X66222Y76772D01*
X63101Y79893D01*
D02*
G37*
G36*
X200787Y99096D02*
X197542Y95850D01*
X204033D01*
X200787Y99096D01*
D02*
G37*
G36*
X380945Y129937D02*
X379718Y129776D01*
X378574Y129302D01*
X377593Y128549D01*
X376839Y127567D01*
X376366Y126424D01*
X376204Y125197D01*
X376366Y123970D01*
X376839Y122827D01*
X377593Y121845D01*
X378574Y121091D01*
X379718Y120618D01*
X380945Y120456D01*
X382172Y120618D01*
X383315Y121091D01*
X384297Y121845D01*
X385050Y122827D01*
X385524Y123970D01*
X385685Y125197D01*
X385524Y126424D01*
X385050Y127567D01*
X384297Y128549D01*
X383315Y129302D01*
X382172Y129776D01*
X380945Y129937D01*
D02*
G37*
G36*
X395645Y129897D02*
X386245D01*
Y120497D01*
X395645D01*
Y129897D01*
D02*
G37*
G36*
X204740Y112891D02*
X201141Y109292D01*
X200787Y109646D01*
X200434Y109292D01*
X196835Y112891D01*
Y96557D01*
X200434Y100157D01*
X200787Y99803D01*
X201141Y100157D01*
X204740Y96557D01*
Y112891D01*
D02*
G37*
G36*
X204033Y113598D02*
X197542D01*
X200787Y110353D01*
X204033Y113598D01*
D02*
G37*
G36*
X251142Y204347D02*
X249915Y204185D01*
X248772Y203712D01*
X247790Y202958D01*
X247036Y201976D01*
X246563Y200833D01*
X246401Y199606D01*
X246563Y198379D01*
X247036Y197236D01*
X247790Y196254D01*
X248772Y195501D01*
X249915Y195027D01*
X251142Y194866D01*
X252369Y195027D01*
X253512Y195501D01*
X254494Y196254D01*
X255247Y197236D01*
X255721Y198379D01*
X255882Y199606D01*
X255721Y200833D01*
X255247Y201976D01*
X254494Y202958D01*
X253512Y203712D01*
X252369Y204185D01*
X251142Y204347D01*
D02*
G37*
G36*
X261142D02*
X259915Y204185D01*
X258771Y203712D01*
X257790Y202958D01*
X257036Y201976D01*
X256563Y200833D01*
X256401Y199606D01*
X256563Y198379D01*
X257036Y197236D01*
X257790Y196254D01*
X258771Y195501D01*
X259915Y195027D01*
X261142Y194866D01*
X262369Y195027D01*
X263512Y195501D01*
X264494Y196254D01*
X265247Y197236D01*
X265721Y198379D01*
X265882Y199606D01*
X265721Y200833D01*
X265247Y201976D01*
X264494Y202958D01*
X263512Y203712D01*
X262369Y204185D01*
X261142Y204347D01*
D02*
G37*
G36*
X171260Y194303D02*
X170085Y194148D01*
X168990Y193694D01*
X168450Y193280D01*
X171260Y190471D01*
X174069Y193280D01*
X173529Y193694D01*
X172435Y194148D01*
X171260Y194303D01*
D02*
G37*
G36*
X241142Y204347D02*
X239915Y204185D01*
X238772Y203712D01*
X237790Y202958D01*
X237036Y201976D01*
X236563Y200833D01*
X236401Y199606D01*
X236563Y198379D01*
X237036Y197236D01*
X237790Y196254D01*
X238772Y195501D01*
X239915Y195027D01*
X241142Y194866D01*
X242369Y195027D01*
X243512Y195501D01*
X244494Y196254D01*
X245247Y197236D01*
X245721Y198379D01*
X245882Y199606D01*
X245721Y200833D01*
X245247Y201976D01*
X244494Y202958D01*
X243512Y203712D01*
X242369Y204185D01*
X241142Y204347D01*
D02*
G37*
G36*
X271142D02*
X269915Y204185D01*
X268772Y203712D01*
X267790Y202958D01*
X267036Y201976D01*
X266563Y200833D01*
X266401Y199606D01*
X266563Y198379D01*
X267036Y197236D01*
X267790Y196254D01*
X268772Y195501D01*
X269915Y195027D01*
X271142Y194866D01*
X272369Y195027D01*
X273512Y195501D01*
X274494Y196254D01*
X275247Y197236D01*
X275721Y198379D01*
X275882Y199606D01*
X275721Y200833D01*
X275247Y201976D01*
X274494Y202958D01*
X273512Y203712D01*
X272369Y204185D01*
X271142Y204347D01*
D02*
G37*
G36*
X331142D02*
X329915Y204185D01*
X328771Y203712D01*
X327790Y202958D01*
X327036Y201976D01*
X326563Y200833D01*
X326401Y199606D01*
X326563Y198379D01*
X327036Y197236D01*
X327790Y196254D01*
X328771Y195501D01*
X329915Y195027D01*
X331142Y194866D01*
X332369Y195027D01*
X333512Y195501D01*
X334494Y196254D01*
X335247Y197236D01*
X335721Y198379D01*
X335882Y199606D01*
X335721Y200833D01*
X335247Y201976D01*
X334494Y202958D01*
X333512Y203712D01*
X332369Y204185D01*
X331142Y204347D01*
D02*
G37*
G36*
X341142D02*
X339915Y204185D01*
X338772Y203712D01*
X337790Y202958D01*
X337036Y201976D01*
X336563Y200833D01*
X336401Y199606D01*
X336563Y198379D01*
X337036Y197236D01*
X337790Y196254D01*
X338772Y195501D01*
X339915Y195027D01*
X341142Y194866D01*
X342369Y195027D01*
X343512Y195501D01*
X344494Y196254D01*
X345247Y197236D01*
X345721Y198379D01*
X345882Y199606D01*
X345721Y200833D01*
X345247Y201976D01*
X344494Y202958D01*
X343512Y203712D01*
X342369Y204185D01*
X341142Y204347D01*
D02*
G37*
G36*
X281142D02*
X279915Y204185D01*
X278771Y203712D01*
X277790Y202958D01*
X277036Y201976D01*
X276563Y200833D01*
X276401Y199606D01*
X276563Y198379D01*
X277036Y197236D01*
X277790Y196254D01*
X278771Y195501D01*
X279915Y195027D01*
X281142Y194866D01*
X282369Y195027D01*
X283512Y195501D01*
X284494Y196254D01*
X285247Y197236D01*
X285721Y198379D01*
X285882Y199606D01*
X285721Y200833D01*
X285247Y201976D01*
X284494Y202958D01*
X283512Y203712D01*
X282369Y204185D01*
X281142Y204347D01*
D02*
G37*
G36*
X311142D02*
X309915Y204185D01*
X308771Y203712D01*
X307790Y202958D01*
X307036Y201976D01*
X306563Y200833D01*
X306401Y199606D01*
X306563Y198379D01*
X307036Y197236D01*
X307790Y196254D01*
X308771Y195501D01*
X309915Y195027D01*
X311142Y194866D01*
X312369Y195027D01*
X313512Y195501D01*
X314494Y196254D01*
X315247Y197236D01*
X315721Y198379D01*
X315882Y199606D01*
X315721Y200833D01*
X315247Y201976D01*
X314494Y202958D01*
X313512Y203712D01*
X312369Y204185D01*
X311142Y204347D01*
D02*
G37*
G36*
X171260Y174303D02*
X170085Y174148D01*
X168990Y173695D01*
X168450Y173280D01*
X171260Y170471D01*
X174069Y173280D01*
X173529Y173695D01*
X172435Y174148D01*
X171260Y174303D01*
D02*
G37*
G36*
X393701Y185833D02*
X392240Y185689D01*
X390836Y185263D01*
X389542Y184571D01*
X388407Y183640D01*
X387476Y182506D01*
X386785Y181211D01*
X386359Y179807D01*
X386215Y178347D01*
X386359Y176886D01*
X386785Y175482D01*
X387476Y174187D01*
X388407Y173053D01*
X389542Y172122D01*
X390836Y171430D01*
X392240Y171004D01*
X393701Y170860D01*
X395161Y171004D01*
X396566Y171430D01*
X397860Y172122D01*
X398994Y173053D01*
X399925Y174187D01*
X400617Y175482D01*
X401043Y176886D01*
X401187Y178347D01*
X401043Y179807D01*
X400617Y181211D01*
X399925Y182506D01*
X398994Y183640D01*
X397860Y184571D01*
X396566Y185263D01*
X395161Y185689D01*
X393701Y185833D01*
D02*
G37*
G36*
X157337Y198934D02*
X142927D01*
X142091Y198824D01*
X141313Y198501D01*
X140644Y197988D01*
X130001Y187345D01*
X129488Y186677D01*
X129166Y185898D01*
X129056Y185063D01*
Y161573D01*
X108116Y140633D01*
X108109Y140632D01*
X107209Y140260D01*
X106436Y139666D01*
X105843Y138893D01*
X105470Y137994D01*
X105343Y137028D01*
X105470Y136062D01*
X105843Y135162D01*
X106436Y134389D01*
X107209Y133796D01*
X108109Y133423D01*
X109075Y133296D01*
X110041Y133423D01*
X110941Y133796D01*
X111714Y134389D01*
X112307Y135162D01*
X112680Y136062D01*
X112680Y136069D01*
X134566Y157954D01*
X135079Y158622D01*
X135401Y159401D01*
X135511Y160236D01*
Y183726D01*
X144264Y192478D01*
X156000D01*
X156227Y192252D01*
X156417Y191793D01*
X156668Y191465D01*
Y183297D01*
X156778Y182462D01*
X156968Y182003D01*
Y175986D01*
X156778Y175527D01*
X156668Y174691D01*
Y173462D01*
X156778Y172627D01*
X156968Y172168D01*
Y168938D01*
X157078Y168102D01*
X157401Y167324D01*
X157914Y166656D01*
X160513Y164056D01*
X161181Y163543D01*
X161588Y163375D01*
X166861Y158102D01*
X167154Y157394D01*
X167908Y156412D01*
X168890Y155658D01*
X170033Y155185D01*
X171260Y155023D01*
X171415Y155044D01*
X171893Y154566D01*
X171660Y154093D01*
X171260Y154145D01*
X170085Y153990D01*
X168990Y153537D01*
X168450Y153123D01*
X171613Y149960D01*
X174776Y146797D01*
X175191Y147337D01*
X175644Y148432D01*
X175799Y149606D01*
X175746Y150006D01*
X176220Y150240D01*
X192521Y133938D01*
X193189Y133425D01*
X193968Y133103D01*
X194803Y132993D01*
X196635D01*
Y127146D01*
X204940D01*
Y145294D01*
X196635D01*
Y139461D01*
X196135Y139453D01*
X175980Y159608D01*
X176000Y159764D01*
X175839Y160991D01*
X175365Y162134D01*
X174612Y163116D01*
X173630Y163869D01*
X172487Y164343D01*
X171260Y164504D01*
X170033Y164343D01*
X169832Y164260D01*
X168556Y165536D01*
X168886Y165913D01*
X168990Y165833D01*
X170085Y165380D01*
X171260Y165225D01*
X172435Y165380D01*
X173529Y165833D01*
X174069Y166247D01*
X170906Y169410D01*
X167743Y172573D01*
X167329Y172033D01*
X166876Y170939D01*
X166721Y169764D01*
X166876Y168589D01*
X167329Y167494D01*
X167409Y167390D01*
X167033Y167060D01*
X165471Y168621D01*
X164803Y169134D01*
X164396Y169302D01*
X163424Y170275D01*
Y173162D01*
X163314Y173997D01*
X163281Y174077D01*
X163314Y174156D01*
X163424Y174991D01*
Y182997D01*
X163314Y183832D01*
X163124Y184291D01*
Y192723D01*
X163014Y193558D01*
X162691Y194337D01*
X162202Y194974D01*
X162007Y195445D01*
X161494Y196114D01*
X159620Y197988D01*
X158951Y198501D01*
X158173Y198824D01*
X157337Y198934D01*
D02*
G37*
G36*
X174776Y172573D02*
X171967Y169764D01*
X174776Y166954D01*
X175191Y167494D01*
X175644Y168589D01*
X175799Y169764D01*
X175644Y170939D01*
X175191Y172033D01*
X174776Y172573D01*
D02*
G37*
G36*
X204940Y196082D02*
X196635D01*
Y187420D01*
X192206Y182991D01*
X174707D01*
X174612Y183116D01*
X173630Y183869D01*
X172487Y184343D01*
X171260Y184504D01*
X170033Y184343D01*
X168890Y183869D01*
X167908Y183116D01*
X167154Y182134D01*
X166681Y180991D01*
X166519Y179764D01*
X166681Y178537D01*
X167154Y177393D01*
X167908Y176412D01*
X168890Y175658D01*
X170033Y175185D01*
X171260Y175023D01*
X172487Y175185D01*
X173630Y175658D01*
X174612Y176412D01*
X174707Y176536D01*
X193543D01*
X194379Y176646D01*
X195157Y176969D01*
X195826Y177481D01*
X196157Y177813D01*
X196635Y177934D01*
Y177934D01*
X196635Y177934D01*
X204940D01*
Y183780D01*
X220079D01*
X220637Y183854D01*
X228524Y175967D01*
X228524Y171635D01*
X228724Y171218D01*
Y166243D01*
X231339Y168858D01*
X232047Y168150D01*
X229432Y165535D01*
X235135D01*
X232521Y168150D01*
X233228Y168858D01*
X235842Y166243D01*
Y171218D01*
X236042Y171635D01*
X236042Y171890D01*
Y177972D01*
X231710D01*
X223233Y186449D01*
X223306Y187008D01*
X223196Y187843D01*
X222874Y188622D01*
X222361Y189290D01*
X221692Y189803D01*
X220914Y190126D01*
X220079Y190235D01*
X204940D01*
Y196082D01*
D02*
G37*
G36*
X167743Y192573D02*
X167329Y192033D01*
X166876Y190938D01*
X166721Y189764D01*
X166876Y188589D01*
X167329Y187494D01*
X167743Y186954D01*
X170553Y189764D01*
X167743Y192573D01*
D02*
G37*
G36*
X174776D02*
X171967Y189764D01*
X174776Y186954D01*
X175191Y187494D01*
X175644Y188589D01*
X175799Y189764D01*
X175644Y190938D01*
X175191Y192033D01*
X174776Y192573D01*
D02*
G37*
G36*
X171260Y189057D02*
X168450Y186247D01*
X168990Y185833D01*
X170085Y185380D01*
X171260Y185225D01*
X172435Y185380D01*
X173529Y185833D01*
X174069Y186247D01*
X171260Y189057D01*
D02*
G37*
%LPD*%
G36*
X274543Y255145D02*
Y245248D01*
X270893Y241599D01*
X237402D01*
X236699Y241459D01*
X236104Y241061D01*
X216461Y221419D01*
X216202Y221526D01*
X215118Y221669D01*
X214034Y221526D01*
X213024Y221108D01*
X212572Y220761D01*
X212071Y221007D01*
Y222468D01*
X237374Y247771D01*
X245060D01*
Y245454D01*
X253365D01*
Y252205D01*
X253827Y252396D01*
X255274Y250949D01*
X255167Y250690D01*
X255024Y249606D01*
X255167Y248522D01*
X255585Y247512D01*
X256251Y246644D01*
X257118Y245979D01*
X258128Y245560D01*
X259213Y245418D01*
X260297Y245560D01*
X261307Y245979D01*
X262174Y246644D01*
X262840Y247512D01*
X263259Y248522D01*
X263401Y249606D01*
X263259Y250690D01*
X262840Y251701D01*
X262174Y252568D01*
X261307Y253234D01*
X260297Y253652D01*
X259213Y253795D01*
X258128Y253652D01*
X257870Y253545D01*
X256211Y255204D01*
Y256045D01*
X256711Y256292D01*
X257118Y255979D01*
X258128Y255560D01*
X259213Y255418D01*
X260297Y255560D01*
X261307Y255979D01*
X262174Y256645D01*
X262840Y257512D01*
X263208Y258401D01*
X271287D01*
X274543Y255145D01*
D02*
G37*
G36*
X245585Y257512D02*
X246251Y256645D01*
X247118Y255979D01*
X248129Y255560D01*
X249213Y255418D01*
X250297Y255560D01*
X251307Y255979D01*
X252040Y256542D01*
X252540Y256354D01*
Y254443D01*
X252577Y254259D01*
X252167Y253759D01*
X245060D01*
Y251442D01*
X236614D01*
X235912Y251302D01*
X235316Y250904D01*
X208939Y224526D01*
X208541Y223931D01*
X208401Y223228D01*
Y220810D01*
X207901Y220579D01*
X207212Y221108D01*
X206953Y221215D01*
Y227586D01*
X237138Y257771D01*
X245478D01*
X245585Y257512D01*
D02*
G37*
D10*
X232283Y174803D02*
D03*
Y168504D02*
D03*
X143307Y73228D02*
D03*
Y66929D02*
D03*
D11*
X200787Y104724D02*
D03*
Y155512D02*
D03*
X114961Y55118D02*
D03*
D12*
X200787Y136221D02*
D03*
Y187008D02*
D03*
X114961Y86614D02*
D03*
D13*
X70866Y86614D02*
X129921D01*
X171260Y127953D02*
Y139764D01*
X129921Y86614D02*
X171260Y127953D01*
D14*
Y179764D02*
X193543D01*
X200787Y187008D01*
X220079D01*
X171260Y159764D02*
X194803Y136221D01*
X200787D01*
X109075Y137028D02*
X132283Y160236D01*
X159896Y173462D02*
X160196Y173162D01*
X159896Y183297D02*
X160196Y182997D01*
Y174991D02*
Y182997D01*
X159896Y174691D02*
X160196Y174991D01*
X159896Y173462D02*
Y174691D01*
X160196Y168938D02*
Y173162D01*
Y168938D02*
X162795Y166339D01*
X163189D01*
X169764Y159764D01*
X159896Y183297D02*
Y192723D01*
X142927Y195706D02*
X157337D01*
X159212Y193831D01*
Y193407D02*
Y193831D01*
Y193407D02*
X159896Y192723D01*
X132283Y160236D02*
Y185063D01*
X142927Y195706D01*
D15*
X220079Y187008D02*
X232283Y174803D01*
X129921Y86614D02*
X143307Y73228D01*
X215118Y217480D02*
X237402Y239764D01*
X271654D01*
X276378Y244488D01*
Y255906D01*
X272047Y260236D02*
X276378Y255906D01*
X259842Y260236D02*
X272047D01*
X259213Y259606D02*
X259842Y260236D01*
X205118Y217480D02*
Y228346D01*
X236378Y259606D01*
X249213D01*
X205118Y207480D02*
X210236Y212598D01*
X215118Y207480D02*
X239134Y231496D01*
X275197D01*
X283858Y240158D01*
Y258661D01*
X275984Y266535D02*
X283858Y258661D01*
X254376Y261610D02*
X254724Y261959D01*
X254376Y254443D02*
Y261610D01*
Y254443D02*
X259213Y249606D01*
X254724Y261959D02*
Y263779D01*
X257480Y266535D01*
X275984D01*
X210236Y212598D02*
Y223228D01*
X236614Y249606D01*
X249213D01*
D16*
X410138Y134449D02*
D03*
D17*
X43701Y134449D02*
D03*
D18*
X384685Y45827D02*
D03*
X176772Y236221D02*
D03*
X365748Y227165D02*
D03*
X308583Y60630D02*
D03*
X378898D02*
D03*
X72835Y27559D02*
D03*
X296536Y45827D02*
D03*
D19*
X374685D02*
D03*
X364685D02*
D03*
X354685D02*
D03*
X344685D02*
D03*
X334685D02*
D03*
X324685D02*
D03*
X314685D02*
D03*
X166772Y236221D02*
D03*
X156772D02*
D03*
X119173Y27953D02*
D03*
X109173D02*
D03*
X365748Y237165D02*
D03*
X375748Y227165D02*
D03*
Y237165D02*
D03*
X385748Y227165D02*
D03*
Y237165D02*
D03*
X380945Y125197D02*
D03*
X390945Y135197D02*
D03*
X380945D02*
D03*
X390945Y145197D02*
D03*
X380945D02*
D03*
X241142Y199606D02*
D03*
X206142Y9606D02*
D03*
X216142D02*
D03*
X226142D02*
D03*
X236142D02*
D03*
X246142D02*
D03*
X256142D02*
D03*
X266142D02*
D03*
X276142D02*
D03*
X286142D02*
D03*
X296142D02*
D03*
X311142D02*
D03*
X321142D02*
D03*
X331142D02*
D03*
X341142D02*
D03*
X351142D02*
D03*
X361142D02*
D03*
X371142D02*
D03*
X381142D02*
D03*
X298583Y60630D02*
D03*
X288583D02*
D03*
X278583D02*
D03*
X268583D02*
D03*
X258583D02*
D03*
X248583D02*
D03*
X238583D02*
D03*
X236536Y45827D02*
D03*
X338898Y60630D02*
D03*
X77835Y241732D02*
D03*
X67835D02*
D03*
X119567D02*
D03*
X109567D02*
D03*
X82835Y27559D02*
D03*
X171260Y189764D02*
D03*
Y179764D02*
D03*
Y169764D02*
D03*
Y159764D02*
D03*
Y149606D02*
D03*
X381142Y199606D02*
D03*
X311142D02*
D03*
X301142D02*
D03*
X291142D02*
D03*
X281142D02*
D03*
X271142D02*
D03*
X261142D02*
D03*
X251142D02*
D03*
X331142D02*
D03*
X341142D02*
D03*
X351142D02*
D03*
X361142D02*
D03*
X371142D02*
D03*
X348898Y60630D02*
D03*
X328898D02*
D03*
X358898D02*
D03*
X368898D02*
D03*
X246536Y45827D02*
D03*
X226536D02*
D03*
X216536D02*
D03*
X206536D02*
D03*
X256536D02*
D03*
X266536D02*
D03*
X276536D02*
D03*
X286536D02*
D03*
D20*
X194095Y236614D02*
D03*
X393701Y178347D02*
D03*
X394094Y68504D02*
D03*
X189370Y48819D02*
D03*
D21*
X259213Y259606D02*
D03*
Y249606D02*
D03*
X249213Y259606D02*
D03*
X215118Y217480D02*
D03*
Y207480D02*
D03*
X205118Y217480D02*
D03*
D22*
X249213Y249606D02*
D03*
X205118Y207480D02*
D03*
D23*
X390945Y125197D02*
D03*
X171260Y139764D02*
D03*
D24*
X70866Y86614D02*
D03*
Y57087D02*
D03*
Y66929D02*
D03*
Y76772D02*
D03*
D25*
X109075Y137028D02*
D03*
M02*
