G04 Layer_Physical_Order=2*
G04 Layer_Color=16711680*
%FSLAX25Y25*%
%MOIN*%
G70*
G01*
G75*
%ADD10R,0.05118X0.03937*%
%ADD14C,0.04000*%
%ADD15C,0.01200*%
%ADD18R,0.07000X0.07000*%
%ADD19C,0.07000*%
%ADD20C,0.07000*%
%ADD21C,0.05906*%
%ADD22R,0.05906X0.05906*%
%ADD23R,0.07000X0.07000*%
%ADD24O,0.15748X0.07874*%
%ADD25C,0.05000*%
%ADD26R,0.03543X0.02756*%
%ADD27O,0.08661X0.02362*%
%ADD28C,0.02500*%
%ADD29R,0.06299X0.18898*%
G36*
X255355Y196555D02*
Y64078D01*
X255231Y63982D01*
X254869Y63511D01*
X254369Y63681D01*
Y196159D01*
X254494Y196254D01*
X254855Y196725D01*
X255355Y196555D01*
D02*
G37*
G36*
X261392Y204791D02*
X261246Y204496D01*
X261131Y204345D01*
X259915Y204185D01*
X258771Y203712D01*
X257790Y202958D01*
X257036Y201976D01*
X256563Y200833D01*
X256437Y199881D01*
X256395Y199816D01*
X256361Y199798D01*
X255820Y200079D01*
X255721Y200833D01*
X255247Y201976D01*
X254494Y202958D01*
X253512Y203712D01*
X252369Y204185D01*
X251142Y204347D01*
X249915Y204185D01*
X248772Y203712D01*
X247790Y202958D01*
X247036Y201976D01*
X246563Y200833D01*
X246401Y199606D01*
X246563Y198379D01*
X247036Y197236D01*
X247790Y196254D01*
X247914Y196159D01*
Y65282D01*
X247356Y65209D01*
X246213Y64735D01*
X245231Y63982D01*
X244477Y63000D01*
X244004Y61857D01*
X243842Y60630D01*
X244004Y59403D01*
X244477Y58260D01*
X245231Y57278D01*
X245753Y56877D01*
X245583Y56377D01*
X241582D01*
X241413Y56877D01*
X241935Y57278D01*
X242688Y58260D01*
X243162Y59403D01*
X243323Y60630D01*
X243162Y61857D01*
X242688Y63000D01*
X241935Y63982D01*
X240953Y64735D01*
X239810Y65209D01*
X238583Y65371D01*
X237356Y65209D01*
X236212Y64735D01*
X235231Y63982D01*
X234477Y63000D01*
X234004Y61857D01*
X233842Y60630D01*
X234004Y59403D01*
X234477Y58260D01*
X235231Y57278D01*
X235753Y56877D01*
X235583Y56377D01*
X205668D01*
X196377Y65668D01*
X195708Y66181D01*
X194930Y66504D01*
X194095Y66613D01*
X132649D01*
X131813Y66504D01*
X131035Y66181D01*
X130366Y65668D01*
X95485Y30787D01*
X91280D01*
X91089Y31249D01*
X179942Y120102D01*
X180455Y120771D01*
X180778Y121549D01*
X180887Y122384D01*
Y176164D01*
X180778Y176999D01*
X180455Y177778D01*
X179942Y178446D01*
X179274Y178959D01*
X178495Y179281D01*
X177660Y179391D01*
X176388D01*
X176000Y179764D01*
X175839Y180991D01*
X175365Y182134D01*
X174612Y183116D01*
X173630Y183869D01*
X172487Y184343D01*
X171260Y184504D01*
X170033Y184343D01*
X168890Y183869D01*
X167908Y183116D01*
X167154Y182134D01*
X166681Y180991D01*
X166519Y179764D01*
X166681Y178537D01*
X167154Y177393D01*
X167908Y176412D01*
X168890Y175658D01*
X170033Y175185D01*
X171260Y175023D01*
X171415Y175044D01*
X171730Y174692D01*
X171521Y174268D01*
X171260Y174303D01*
X170085Y174148D01*
X168990Y173695D01*
X168450Y173280D01*
X171613Y170117D01*
X171260Y169764D01*
X171613Y169410D01*
X168450Y166247D01*
X168819Y165964D01*
X168668Y165501D01*
X168240Y165459D01*
X160708Y172991D01*
Y191577D01*
X191888Y222757D01*
X243427D01*
X261392Y204791D01*
D02*
G37*
G36*
X410138Y269291D02*
Y106D01*
X410138Y-394D01*
X43701D01*
Y215201D01*
X44201Y215409D01*
X138523Y121087D01*
X139118Y120689D01*
X139820Y120549D01*
X170607D01*
X170798Y120087D01*
X82990Y32279D01*
X82835Y32300D01*
X81608Y32138D01*
X80464Y31664D01*
X79483Y30911D01*
X78729Y29929D01*
X78256Y28786D01*
X78094Y27559D01*
X78256Y26332D01*
X78729Y25189D01*
X79483Y24207D01*
X80464Y23454D01*
X81608Y22980D01*
X82835Y22818D01*
X84061Y22980D01*
X85205Y23454D01*
X86187Y24207D01*
X86282Y24331D01*
X96822D01*
X97657Y24441D01*
X98436Y24764D01*
X98741Y24368D01*
X97227Y22853D01*
X94273D01*
Y17698D01*
X100216D01*
Y20652D01*
X104834Y25270D01*
X105333Y25237D01*
X105821Y24601D01*
X106803Y23847D01*
X107946Y23374D01*
X109173Y23212D01*
X110400Y23374D01*
X111544Y23847D01*
X112525Y24601D01*
X113279Y25583D01*
X113752Y26726D01*
X113914Y27953D01*
X113752Y29180D01*
X113279Y30323D01*
X112525Y31305D01*
X111544Y32058D01*
X110400Y32532D01*
X109173Y32693D01*
X107946Y32532D01*
X106803Y32058D01*
X105899Y31365D01*
X105569Y31741D01*
X133986Y60158D01*
X192758D01*
X202048Y50867D01*
X202717Y50354D01*
X203495Y50032D01*
X203617Y49512D01*
X203184Y49179D01*
X202430Y48197D01*
X201957Y47054D01*
X201795Y45827D01*
X201957Y44600D01*
X202430Y43457D01*
X203184Y42475D01*
X203308Y42379D01*
Y13356D01*
X202790Y12958D01*
X202036Y11976D01*
X201563Y10833D01*
X201401Y9606D01*
X201563Y8379D01*
X202036Y7236D01*
X202790Y6254D01*
X203771Y5501D01*
X204915Y5027D01*
X206142Y4866D01*
X207369Y5027D01*
X208512Y5501D01*
X209494Y6254D01*
X210247Y7236D01*
X210721Y8379D01*
X210882Y9606D01*
X210721Y10833D01*
X210247Y11976D01*
X209763Y12607D01*
Y42379D01*
X209888Y42475D01*
X210641Y43457D01*
X211115Y44600D01*
X211276Y45827D01*
X211115Y47054D01*
X210641Y48197D01*
X209888Y49179D01*
X209536Y49448D01*
X209697Y49922D01*
X213374D01*
X213535Y49448D01*
X213183Y49179D01*
X212430Y48197D01*
X211957Y47054D01*
X211795Y45827D01*
X211957Y44600D01*
X212430Y43457D01*
X213183Y42475D01*
X213308Y42379D01*
Y20024D01*
X213024Y19339D01*
X212914Y18504D01*
Y13054D01*
X212790Y12958D01*
X212036Y11976D01*
X211563Y10833D01*
X211401Y9606D01*
X211563Y8379D01*
X212036Y7236D01*
X212790Y6254D01*
X213772Y5501D01*
X214915Y5027D01*
X216142Y4866D01*
X217369Y5027D01*
X218512Y5501D01*
X219494Y6254D01*
X220247Y7236D01*
X220721Y8379D01*
X220882Y9606D01*
X220721Y10833D01*
X220247Y11976D01*
X219494Y12958D01*
X219369Y13054D01*
Y17377D01*
X219653Y18062D01*
X219763Y18898D01*
Y42379D01*
X219888Y42475D01*
X220641Y43457D01*
X221115Y44600D01*
X221276Y45827D01*
X221115Y47054D01*
X220641Y48197D01*
X219888Y49179D01*
X219536Y49448D01*
X219697Y49922D01*
X223374D01*
X223535Y49448D01*
X223183Y49179D01*
X222430Y48197D01*
X221957Y47054D01*
X221795Y45827D01*
X221957Y44600D01*
X222430Y43457D01*
X223183Y42475D01*
X223308Y42379D01*
Y20024D01*
X223024Y19339D01*
X222914Y18504D01*
Y13054D01*
X222790Y12958D01*
X222036Y11976D01*
X221563Y10833D01*
X221401Y9606D01*
X221563Y8379D01*
X222036Y7236D01*
X222790Y6254D01*
X223772Y5501D01*
X224915Y5027D01*
X226142Y4866D01*
X227369Y5027D01*
X228512Y5501D01*
X229494Y6254D01*
X230247Y7236D01*
X230721Y8379D01*
X230882Y9606D01*
X230721Y10833D01*
X230247Y11976D01*
X229494Y12958D01*
X229369Y13054D01*
Y17377D01*
X229653Y18062D01*
X229763Y18898D01*
Y42379D01*
X229888Y42475D01*
X230641Y43457D01*
X231115Y44600D01*
X231276Y45827D01*
X231115Y47054D01*
X230641Y48197D01*
X229888Y49179D01*
X229536Y49448D01*
X229697Y49922D01*
X233659D01*
X233829Y49422D01*
X233726Y49343D01*
X236536Y46534D01*
X239345Y49343D01*
X239242Y49422D01*
X239412Y49922D01*
X243374D01*
X243535Y49448D01*
X243183Y49179D01*
X242430Y48197D01*
X241957Y47054D01*
X241795Y45827D01*
X241957Y44600D01*
X242430Y43457D01*
X243183Y42475D01*
X243308Y42379D01*
Y22780D01*
X243024Y22095D01*
X242914Y21260D01*
Y13054D01*
X242790Y12958D01*
X242036Y11976D01*
X241563Y10833D01*
X241401Y9606D01*
X241563Y8379D01*
X241784Y7844D01*
X237744Y3804D01*
X187768D01*
X162321Y29250D01*
X161726Y29648D01*
X161024Y29788D01*
X123500D01*
X123279Y30323D01*
X122525Y31305D01*
X121544Y32058D01*
X120400Y32532D01*
X119173Y32693D01*
X117946Y32532D01*
X116803Y32058D01*
X115821Y31305D01*
X115068Y30323D01*
X114594Y29180D01*
X114433Y27953D01*
X114594Y26726D01*
X115068Y25583D01*
X115821Y24601D01*
X116803Y23847D01*
X117946Y23374D01*
X119173Y23212D01*
X120400Y23374D01*
X121544Y23847D01*
X122525Y24601D01*
X123279Y25583D01*
X123500Y26118D01*
X160263D01*
X185710Y671D01*
X186305Y273D01*
X187008Y133D01*
X238504D01*
X239206Y273D01*
X239802Y671D01*
X244380Y5249D01*
X244915Y5027D01*
X246142Y4866D01*
X247369Y5027D01*
X248512Y5501D01*
X249494Y6254D01*
X250247Y7236D01*
X250721Y8379D01*
X250882Y9606D01*
X250721Y10833D01*
X250247Y11976D01*
X249494Y12958D01*
X249369Y13054D01*
Y17377D01*
X249653Y18062D01*
X249763Y18898D01*
Y42379D01*
X249888Y42475D01*
X250641Y43457D01*
X251115Y44600D01*
X251276Y45827D01*
X251115Y47054D01*
X250641Y48197D01*
X249888Y49179D01*
X249536Y49448D01*
X249697Y49922D01*
X253374D01*
X253535Y49448D01*
X253184Y49179D01*
X252430Y48197D01*
X251957Y47054D01*
X251795Y45827D01*
X251957Y44600D01*
X252430Y43457D01*
X253184Y42475D01*
X253308Y42379D01*
Y24355D01*
X253024Y23670D01*
X252914Y22835D01*
Y13054D01*
X252790Y12958D01*
X252036Y11976D01*
X251563Y10833D01*
X251401Y9606D01*
X251563Y8379D01*
X252036Y7236D01*
X252790Y6254D01*
X253771Y5501D01*
X254915Y5027D01*
X256142Y4866D01*
X257369Y5027D01*
X258512Y5501D01*
X259494Y6254D01*
X260247Y7236D01*
X260721Y8379D01*
X260882Y9606D01*
X260721Y10833D01*
X260247Y11976D01*
X259494Y12958D01*
X259369Y13054D01*
Y17377D01*
X259653Y18062D01*
X259763Y18898D01*
Y42379D01*
X259888Y42475D01*
X260641Y43457D01*
X261115Y44600D01*
X261276Y45827D01*
X261115Y47054D01*
X260641Y48197D01*
X259888Y49179D01*
X259536Y49448D01*
X259697Y49922D01*
X263374D01*
X263535Y49448D01*
X263183Y49179D01*
X262430Y48197D01*
X261957Y47054D01*
X261795Y45827D01*
X261957Y44600D01*
X262430Y43457D01*
X263183Y42475D01*
X263308Y42379D01*
Y23961D01*
X263024Y23276D01*
X262914Y22441D01*
Y13054D01*
X262790Y12958D01*
X262036Y11976D01*
X261563Y10833D01*
X261401Y9606D01*
X261563Y8379D01*
X262036Y7236D01*
X262790Y6254D01*
X263772Y5501D01*
X264915Y5027D01*
X266142Y4866D01*
X267369Y5027D01*
X268512Y5501D01*
X269494Y6254D01*
X270247Y7236D01*
X270721Y8379D01*
X270882Y9606D01*
X270721Y10833D01*
X270247Y11976D01*
X269494Y12958D01*
X269369Y13054D01*
Y17377D01*
X269653Y18062D01*
X269763Y18898D01*
Y42379D01*
X269888Y42475D01*
X270641Y43457D01*
X271115Y44600D01*
X271276Y45827D01*
X271115Y47054D01*
X270641Y48197D01*
X269888Y49179D01*
X269536Y49448D01*
X269697Y49922D01*
X273374D01*
X273535Y49448D01*
X273183Y49179D01*
X272430Y48197D01*
X271957Y47054D01*
X271795Y45827D01*
X271957Y44600D01*
X272430Y43457D01*
X273183Y42475D01*
X273308Y42379D01*
Y24749D01*
X273024Y24064D01*
X272914Y23228D01*
Y13054D01*
X272790Y12958D01*
X272036Y11976D01*
X271563Y10833D01*
X271401Y9606D01*
X271563Y8379D01*
X272036Y7236D01*
X272790Y6254D01*
X273772Y5501D01*
X274915Y5027D01*
X276142Y4866D01*
X277369Y5027D01*
X278512Y5501D01*
X279494Y6254D01*
X280247Y7236D01*
X280721Y8379D01*
X280882Y9606D01*
X280721Y10833D01*
X280247Y11976D01*
X279494Y12958D01*
X279369Y13054D01*
Y17377D01*
X279653Y18062D01*
X279763Y18898D01*
Y42379D01*
X279888Y42475D01*
X280641Y43457D01*
X281115Y44600D01*
X281276Y45827D01*
X281115Y47054D01*
X280641Y48197D01*
X279888Y49179D01*
X278906Y49932D01*
X277977Y50317D01*
X277873Y50867D01*
X280865Y53860D01*
X281378Y54528D01*
X281700Y55307D01*
X281810Y56142D01*
Y57182D01*
X281935Y57278D01*
X282688Y58260D01*
X283162Y59403D01*
X283323Y60630D01*
X283301Y60799D01*
X283376Y60870D01*
X283424Y60907D01*
X283448Y60938D01*
X283650Y61128D01*
X284086Y60948D01*
X284044Y60630D01*
X284199Y59455D01*
X284652Y58360D01*
X285066Y57821D01*
X287876Y60630D01*
X285066Y63439D01*
X284864Y63175D01*
X284369Y63352D01*
Y196159D01*
X284494Y196254D01*
X285247Y197236D01*
X285721Y198379D01*
X285882Y199606D01*
X285721Y200833D01*
X285247Y201976D01*
X284494Y202958D01*
X283512Y203712D01*
X282369Y204185D01*
X281142Y204347D01*
X279915Y204185D01*
X278771Y203712D01*
X277790Y202958D01*
X277036Y201976D01*
X276563Y200833D01*
X276401Y199606D01*
X276563Y198379D01*
X277036Y197236D01*
X277790Y196254D01*
X277914Y196159D01*
Y65282D01*
X277356Y65209D01*
X276213Y64735D01*
X275231Y63982D01*
X274477Y63000D01*
X274004Y61857D01*
X273842Y60630D01*
X274004Y59403D01*
X274477Y58260D01*
X275198Y57321D01*
X274254Y56377D01*
X271583D01*
X271413Y56877D01*
X271935Y57278D01*
X272688Y58260D01*
X273162Y59403D01*
X273323Y60630D01*
X273162Y61857D01*
X272688Y63000D01*
X271935Y63982D01*
X270953Y64735D01*
X269810Y65209D01*
X268583Y65371D01*
X267356Y65209D01*
X266213Y64735D01*
X265231Y63982D01*
X264477Y63000D01*
X264004Y61857D01*
X263842Y60630D01*
X264004Y59403D01*
X264477Y58260D01*
X265231Y57278D01*
X265753Y56877D01*
X265583Y56377D01*
X261582D01*
X261413Y56877D01*
X261935Y57278D01*
X262688Y58260D01*
X263162Y59403D01*
X263323Y60630D01*
X263162Y61857D01*
X262688Y63000D01*
X261935Y63982D01*
X261810Y64078D01*
Y194954D01*
X262369Y195027D01*
X263512Y195501D01*
X264494Y196254D01*
X265247Y197236D01*
X265721Y198379D01*
X265821Y199142D01*
X266040Y199340D01*
X266362Y199417D01*
X266435Y199352D01*
X266563Y198379D01*
X267036Y197236D01*
X267790Y196254D01*
X268772Y195501D01*
X269915Y195027D01*
X271142Y194866D01*
X272369Y195027D01*
X273512Y195501D01*
X274494Y196254D01*
X275247Y197236D01*
X275721Y198379D01*
X275882Y199606D01*
X275721Y200833D01*
X275247Y201976D01*
X274494Y202958D01*
X273512Y203712D01*
X272369Y204185D01*
X271142Y204347D01*
X270986Y204326D01*
X247046Y228267D01*
X246378Y228779D01*
X245599Y229102D01*
X244764Y229212D01*
X197079D01*
X196959Y229698D01*
X198254Y230390D01*
X199388Y231321D01*
X200319Y232455D01*
X201011Y233749D01*
X201437Y235154D01*
X201581Y236614D01*
X201437Y238075D01*
X201011Y239479D01*
X200319Y240773D01*
X199388Y241908D01*
X198254Y242839D01*
X196959Y243530D01*
X195555Y243956D01*
X194095Y244100D01*
X192634Y243956D01*
X191230Y243530D01*
X189936Y242839D01*
X188801Y241908D01*
X187870Y240773D01*
X187178Y239479D01*
X186752Y238075D01*
X186608Y236614D01*
X186752Y235154D01*
X187178Y233749D01*
X187870Y232455D01*
X188801Y231321D01*
X189936Y230390D01*
X191230Y229698D01*
X191110Y229212D01*
X190551D01*
X189716Y229102D01*
X188937Y228779D01*
X188269Y228267D01*
X155198Y195196D01*
X154685Y194527D01*
X154363Y193749D01*
X154253Y192913D01*
Y171653D01*
X154363Y170818D01*
X154685Y170040D01*
X155198Y169371D01*
X162508Y162061D01*
X162317Y161599D01*
X111863D01*
X52229Y221233D01*
Y233446D01*
X53365D01*
Y238602D01*
X47422D01*
X47111Y238973D01*
Y238980D01*
X47422Y239351D01*
X53365D01*
Y240094D01*
X63426D01*
X63729Y239362D01*
X64482Y238380D01*
X65464Y237627D01*
X66608Y237153D01*
X67835Y236992D01*
X69061Y237153D01*
X70205Y237627D01*
X71187Y238380D01*
X71940Y239362D01*
X72414Y240505D01*
X72575Y241732D01*
X72414Y242959D01*
X71940Y244103D01*
X71187Y245084D01*
X70205Y245838D01*
X69061Y246311D01*
X67835Y246473D01*
X66608Y246311D01*
X65464Y245838D01*
X64482Y245084D01*
X63729Y244103D01*
X63589Y243764D01*
X53365D01*
Y244507D01*
X48543D01*
X48352Y244969D01*
X50760Y247377D01*
X84476D01*
X95454Y236400D01*
Y233446D01*
X101397D01*
Y238602D01*
X98521D01*
X98309Y238866D01*
X98524Y239351D01*
X101397D01*
Y240094D01*
X105158D01*
X105462Y239362D01*
X106215Y238380D01*
X107197Y237627D01*
X108340Y237153D01*
X109567Y236992D01*
X110794Y237153D01*
X111937Y237627D01*
X112919Y238380D01*
X113672Y239362D01*
X114146Y240505D01*
X114307Y241732D01*
X114146Y242959D01*
X113672Y244103D01*
X112919Y245084D01*
X111937Y245838D01*
X110794Y246311D01*
X109567Y246473D01*
X108340Y246311D01*
X107197Y245838D01*
X106215Y245084D01*
X105462Y244103D01*
X105321Y243764D01*
X101397D01*
Y244507D01*
X95454D01*
Y242244D01*
X94992Y242053D01*
X86534Y250510D01*
X85939Y250908D01*
X85236Y251048D01*
X50000D01*
X49298Y250908D01*
X48702Y250510D01*
X44201Y246009D01*
X43701Y246216D01*
Y268791D01*
X44201Y269291D01*
X410138Y269291D01*
D02*
G37*
G36*
X48558Y220472D02*
X48698Y219770D01*
X49096Y219175D01*
X109805Y158466D01*
X110400Y158068D01*
X111102Y157929D01*
X166933D01*
X167154Y157394D01*
X167908Y156412D01*
X168890Y155658D01*
X170033Y155185D01*
X171260Y155023D01*
X172487Y155185D01*
X173630Y155658D01*
X173984Y155930D01*
X174432Y155709D01*
Y153409D01*
X173984Y153188D01*
X173529Y153537D01*
X172435Y153990D01*
X171260Y154145D01*
X170085Y153990D01*
X168990Y153537D01*
X168450Y153123D01*
X171613Y149960D01*
X171260Y149606D01*
X171613Y149253D01*
X168450Y146090D01*
X168990Y145676D01*
X170085Y145222D01*
X171260Y145068D01*
X172435Y145222D01*
X173529Y145676D01*
X173984Y146024D01*
X174432Y145803D01*
Y144464D01*
X166560D01*
Y135064D01*
X174432D01*
Y124220D01*
X140581D01*
X47111Y217689D01*
Y233075D01*
X47422Y233446D01*
X48558D01*
Y220472D01*
D02*
G37*
%LPC*%
G36*
X63101Y79893D02*
X62617Y79261D01*
X62119Y78061D01*
X61950Y76772D01*
X62119Y75483D01*
X62617Y74282D01*
X63101Y73651D01*
X66222Y76772D01*
X63101Y79893D01*
D02*
G37*
G36*
X78631D02*
X75510Y76772D01*
X78631Y73651D01*
X79116Y74282D01*
X79613Y75483D01*
X79783Y76772D01*
X79613Y78061D01*
X79116Y79261D01*
X78631Y79893D01*
D02*
G37*
G36*
X394094Y75990D02*
X392634Y75846D01*
X391230Y75420D01*
X389935Y74728D01*
X388801Y73797D01*
X387870Y72663D01*
X387178Y71369D01*
X386752Y69964D01*
X386608Y68504D01*
X386752Y67044D01*
X387178Y65639D01*
X387870Y64345D01*
X388801Y63210D01*
X389935Y62279D01*
X391230Y61588D01*
X392634Y61162D01*
X394094Y61018D01*
X395555Y61162D01*
X396959Y61588D01*
X398253Y62279D01*
X399388Y63210D01*
X400319Y64345D01*
X401011Y65639D01*
X401437Y67044D01*
X401580Y68504D01*
X401437Y69964D01*
X401011Y71369D01*
X400319Y72663D01*
X399388Y73797D01*
X398253Y74728D01*
X396959Y75420D01*
X395555Y75846D01*
X394094Y75990D01*
D02*
G37*
G36*
X371142Y204347D02*
X369915Y204185D01*
X368772Y203712D01*
X367790Y202958D01*
X367036Y201976D01*
X366563Y200833D01*
X366401Y199606D01*
X366563Y198379D01*
X367036Y197236D01*
X367568Y196543D01*
X366615Y195589D01*
X366103Y194921D01*
X365780Y194142D01*
X365670Y193307D01*
Y64078D01*
X365546Y63982D01*
X364869Y63101D01*
X364441Y63192D01*
X364369Y63231D01*
Y196159D01*
X364494Y196254D01*
X365247Y197236D01*
X365721Y198379D01*
X365882Y199606D01*
X365721Y200833D01*
X365247Y201976D01*
X364494Y202958D01*
X363512Y203712D01*
X362369Y204185D01*
X361142Y204347D01*
X359915Y204185D01*
X358771Y203712D01*
X357790Y202958D01*
X357036Y201976D01*
X356563Y200833D01*
X356401Y199606D01*
X356563Y198379D01*
X357036Y197236D01*
X357790Y196254D01*
X357914Y196159D01*
Y65241D01*
X357671Y65209D01*
X356527Y64735D01*
X355546Y63982D01*
X354869Y63101D01*
X354441Y63192D01*
X354369Y63231D01*
Y196159D01*
X354494Y196254D01*
X355247Y197236D01*
X355721Y198379D01*
X355882Y199606D01*
X355721Y200833D01*
X355247Y201976D01*
X354494Y202958D01*
X353512Y203712D01*
X352369Y204185D01*
X351142Y204347D01*
X349915Y204185D01*
X348772Y203712D01*
X347790Y202958D01*
X347036Y201976D01*
X346563Y200833D01*
X346401Y199606D01*
X346563Y198379D01*
X347036Y197236D01*
X347790Y196254D01*
X347914Y196159D01*
Y65241D01*
X347671Y65209D01*
X346527Y64735D01*
X345546Y63982D01*
X344869Y63101D01*
X344441Y63192D01*
X344369Y63231D01*
Y196159D01*
X344494Y196254D01*
X345247Y197236D01*
X345721Y198379D01*
X345882Y199606D01*
X345721Y200833D01*
X345247Y201976D01*
X344494Y202958D01*
X343512Y203712D01*
X342369Y204185D01*
X341142Y204347D01*
X339915Y204185D01*
X338772Y203712D01*
X337790Y202958D01*
X337036Y201976D01*
X336563Y200833D01*
X336401Y199606D01*
X336563Y198379D01*
X337036Y197236D01*
X337790Y196254D01*
X337914Y196159D01*
Y65241D01*
X337671Y65209D01*
X336527Y64735D01*
X335546Y63982D01*
X334869Y63101D01*
X334441Y63192D01*
X334369Y63231D01*
Y196159D01*
X334494Y196254D01*
X335247Y197236D01*
X335721Y198379D01*
X335882Y199606D01*
X335721Y200833D01*
X335247Y201976D01*
X334494Y202958D01*
X333512Y203712D01*
X332369Y204185D01*
X331142Y204347D01*
X329915Y204185D01*
X328771Y203712D01*
X327790Y202958D01*
X327036Y201976D01*
X326563Y200833D01*
X326401Y199606D01*
X326563Y198379D01*
X327036Y197236D01*
X327790Y196254D01*
X327914Y196159D01*
Y65241D01*
X327671Y65209D01*
X326527Y64735D01*
X325546Y63982D01*
X324792Y63000D01*
X324319Y61857D01*
X324157Y60630D01*
X324319Y59403D01*
X324792Y58260D01*
X325546Y57278D01*
X326527Y56524D01*
X327671Y56051D01*
X328898Y55889D01*
X330125Y56051D01*
X331268Y56524D01*
X332250Y57278D01*
X333003Y58260D01*
X333477Y59403D01*
X333613Y60436D01*
X333672Y60481D01*
X334206Y60258D01*
X334319Y59403D01*
X334792Y58260D01*
X335546Y57278D01*
X336527Y56524D01*
X337671Y56051D01*
X338898Y55889D01*
X340125Y56051D01*
X341268Y56524D01*
X342250Y57278D01*
X343003Y58260D01*
X343477Y59403D01*
X343613Y60436D01*
X343672Y60481D01*
X344206Y60258D01*
X344319Y59403D01*
X344792Y58260D01*
X345546Y57278D01*
X346527Y56524D01*
X347671Y56051D01*
X348898Y55889D01*
X350125Y56051D01*
X351268Y56524D01*
X352250Y57278D01*
X353003Y58260D01*
X353477Y59403D01*
X353613Y60436D01*
X353672Y60481D01*
X354206Y60258D01*
X354319Y59403D01*
X354792Y58260D01*
X355546Y57278D01*
X356527Y56524D01*
X357671Y56051D01*
X358898Y55889D01*
X360125Y56051D01*
X361268Y56524D01*
X362250Y57278D01*
X363003Y58260D01*
X363477Y59403D01*
X363613Y60436D01*
X363672Y60481D01*
X364206Y60258D01*
X364319Y59403D01*
X364792Y58260D01*
X365546Y57278D01*
X366527Y56524D01*
X367671Y56051D01*
X368898Y55889D01*
X370125Y56051D01*
X371268Y56524D01*
X372250Y57278D01*
X373003Y58260D01*
X373477Y59403D01*
X373638Y60630D01*
X373477Y61857D01*
X373003Y63000D01*
X372250Y63982D01*
X372125Y64078D01*
Y191970D01*
X373424Y193269D01*
X373937Y193937D01*
X374259Y194716D01*
X374369Y195551D01*
Y196159D01*
X374494Y196254D01*
X375247Y197236D01*
X375721Y198379D01*
X375882Y199606D01*
X375721Y200833D01*
X375247Y201976D01*
X374494Y202958D01*
X373512Y203712D01*
X372369Y204185D01*
X371142Y204347D01*
D02*
G37*
G36*
X298583Y65169D02*
X297408Y65014D01*
X296313Y64561D01*
X295774Y64146D01*
X298583Y61337D01*
X301392Y64146D01*
X300852Y64561D01*
X299758Y65014D01*
X298583Y65169D01*
D02*
G37*
G36*
X78631Y70050D02*
X75510Y66929D01*
X78631Y63808D01*
X79116Y64439D01*
X79613Y65640D01*
X79783Y66929D01*
X79613Y68218D01*
X79116Y69419D01*
X78631Y70050D01*
D02*
G37*
G36*
X288583Y65169D02*
X287408Y65014D01*
X286313Y64561D01*
X285773Y64146D01*
X288583Y61337D01*
X291392Y64146D01*
X290852Y64561D01*
X289757Y65014D01*
X288583Y65169D01*
D02*
G37*
G36*
X380945Y129937D02*
X379718Y129776D01*
X378574Y129302D01*
X377593Y128549D01*
X376839Y127567D01*
X376366Y126424D01*
X376204Y125197D01*
X376366Y123970D01*
X376839Y122827D01*
X377593Y121845D01*
X378574Y121091D01*
X379718Y120618D01*
X380945Y120456D01*
X382172Y120618D01*
X383315Y121091D01*
X384297Y121845D01*
X385050Y122827D01*
X385524Y123970D01*
X385685Y125197D01*
X385524Y126424D01*
X385050Y127567D01*
X384297Y128549D01*
X383315Y129302D01*
X382172Y129776D01*
X380945Y129937D01*
D02*
G37*
G36*
X390945Y149937D02*
X389718Y149776D01*
X388575Y149302D01*
X387593Y148549D01*
X386839Y147567D01*
X386366Y146424D01*
X386204Y145197D01*
X386366Y143970D01*
X386839Y142827D01*
X387593Y141845D01*
X388575Y141091D01*
X389718Y140618D01*
X390945Y140456D01*
X392172Y140618D01*
X393315Y141091D01*
X394297Y141845D01*
X395050Y142827D01*
X395524Y143970D01*
X395685Y145197D01*
X395524Y146424D01*
X395050Y147567D01*
X394297Y148549D01*
X393315Y149302D01*
X392172Y149776D01*
X390945Y149937D01*
D02*
G37*
G36*
X380945D02*
X379718Y149776D01*
X378574Y149302D01*
X377593Y148549D01*
X376839Y147567D01*
X376366Y146424D01*
X376204Y145197D01*
X376366Y143970D01*
X376839Y142827D01*
X377593Y141845D01*
X378574Y141091D01*
X379718Y140618D01*
X380945Y140456D01*
X382172Y140618D01*
X383315Y141091D01*
X384297Y141845D01*
X385050Y142827D01*
X385524Y143970D01*
X385685Y145197D01*
X385524Y146424D01*
X385050Y147567D01*
X384297Y148549D01*
X383315Y149302D01*
X382172Y149776D01*
X380945Y149937D01*
D02*
G37*
G36*
X167743Y152416D02*
X167329Y151876D01*
X166876Y150781D01*
X166721Y149606D01*
X166876Y148432D01*
X167329Y147337D01*
X167743Y146797D01*
X170553Y149606D01*
X167743Y152416D01*
D02*
G37*
G36*
Y172573D02*
X167329Y172033D01*
X166876Y170939D01*
X166721Y169764D01*
X166876Y168589D01*
X167329Y167494D01*
X167743Y166954D01*
X170553Y169764D01*
X167743Y172573D01*
D02*
G37*
G36*
X66238Y154937D02*
X60534D01*
X63149Y152322D01*
X62442Y151615D01*
X59827Y154230D01*
Y149255D01*
X59627Y148838D01*
X59627Y148583D01*
Y142501D01*
X60158D01*
Y138739D01*
X50867Y129448D01*
X50354Y128779D01*
X50032Y128001D01*
X49922Y127165D01*
Y69291D01*
X50032Y68456D01*
X50354Y67677D01*
X50867Y67009D01*
X61893Y55983D01*
X61924Y55746D01*
X62442Y54496D01*
X63265Y53423D01*
X64338Y52600D01*
X65588Y52082D01*
X66929Y51905D01*
X67639D01*
Y29527D01*
X67749Y28692D01*
X68071Y27914D01*
X68135Y27831D01*
Y22859D01*
X77535D01*
Y32259D01*
X74094D01*
Y51905D01*
X74803D01*
X76144Y52082D01*
X77394Y52600D01*
X78467Y53423D01*
X79290Y54496D01*
X79808Y55746D01*
X79984Y57087D01*
X79808Y58428D01*
X79290Y59677D01*
X78467Y60750D01*
X77394Y61574D01*
X76738Y61845D01*
Y62387D01*
X77293Y62617D01*
X77924Y63101D01*
X74450Y66575D01*
X74803Y66929D01*
X74450Y67283D01*
X77924Y70757D01*
X77293Y71241D01*
X76476Y71580D01*
Y72121D01*
X77293Y72459D01*
X77924Y72944D01*
X74450Y76418D01*
X74803Y76772D01*
X74450Y77125D01*
X77924Y80600D01*
X77293Y81084D01*
X76738Y81314D01*
Y81855D01*
X77394Y82127D01*
X78467Y82951D01*
X79290Y84024D01*
X79808Y85273D01*
X79984Y86614D01*
X79808Y87955D01*
X79290Y89205D01*
X78467Y90278D01*
X77394Y91101D01*
X76144Y91619D01*
X74803Y91796D01*
X66929D01*
X65588Y91619D01*
X64338Y91101D01*
X63265Y90278D01*
X62442Y89205D01*
X61924Y87955D01*
X61748Y86614D01*
X61924Y85273D01*
X62442Y84024D01*
X63265Y82951D01*
X64338Y82127D01*
X64995Y81855D01*
Y81314D01*
X64439Y81084D01*
X63808Y80600D01*
X67283Y77125D01*
X66929Y76772D01*
X67283Y76418D01*
X63808Y72944D01*
X64439Y72459D01*
X65256Y72121D01*
Y71580D01*
X64439Y71241D01*
X63808Y70757D01*
X67283Y67283D01*
X66576Y66575D01*
X63101Y70050D01*
X62617Y69419D01*
X62119Y68218D01*
X61950Y66929D01*
X62119Y65640D01*
X62152Y65560D01*
X61729Y65277D01*
X56377Y70628D01*
Y125828D01*
X64349Y133800D01*
X67010D01*
X67278Y133300D01*
X67048Y132957D01*
X66864Y132028D01*
X67048Y131098D01*
X67575Y130311D01*
X68362Y129785D01*
X68886Y129681D01*
Y129171D01*
X68440Y129082D01*
X68143Y128883D01*
X69645Y127381D01*
X69291Y127028D01*
X69645Y126674D01*
X68143Y125172D01*
X68440Y124973D01*
X69291Y124804D01*
X75590D01*
X76442Y124973D01*
X77017Y125357D01*
X77517Y125153D01*
Y123902D01*
X77017Y123698D01*
X76442Y124082D01*
X75590Y124251D01*
X69291D01*
X68440Y124082D01*
X68143Y123883D01*
X69645Y122381D01*
X69291Y122028D01*
X69645Y121674D01*
X68143Y120172D01*
X68440Y119973D01*
X69291Y119804D01*
X75590D01*
X76442Y119973D01*
X77017Y120357D01*
X77517Y120153D01*
Y120079D01*
X77610Y119611D01*
X77875Y119214D01*
X78272Y118948D01*
X78740Y118855D01*
X85039D01*
X85508Y118948D01*
X85905Y119214D01*
X86170Y119611D01*
X86223Y119876D01*
X86653Y120108D01*
X86763Y120117D01*
X87260Y119785D01*
X88189Y119600D01*
X94488D01*
X95417Y119785D01*
X96205Y120311D01*
X96731Y121098D01*
X96916Y122028D01*
X96731Y122957D01*
X96205Y123744D01*
X95417Y124270D01*
X95406Y124273D01*
Y124783D01*
X95417Y124785D01*
X96205Y125311D01*
X96731Y126099D01*
X96916Y127028D01*
X96731Y127957D01*
X96205Y128744D01*
X95417Y129271D01*
X95406Y129273D01*
Y129782D01*
X95417Y129785D01*
X96205Y130311D01*
X96731Y131098D01*
X96916Y132028D01*
X96731Y132957D01*
X96502Y133300D01*
X96769Y133800D01*
X107203D01*
X107209Y133796D01*
X108109Y133423D01*
X109075Y133296D01*
X110041Y133423D01*
X110941Y133796D01*
X111714Y134389D01*
X112307Y135162D01*
X112680Y136062D01*
X112807Y137028D01*
X112680Y137994D01*
X112307Y138893D01*
X111714Y139666D01*
X110941Y140260D01*
X110041Y140632D01*
X109075Y140760D01*
X108109Y140632D01*
X107209Y140260D01*
X107203Y140255D01*
X91339D01*
X90503Y140145D01*
X89725Y139823D01*
X89246Y139455D01*
X88189D01*
X87260Y139270D01*
X86763Y138938D01*
X86653Y138947D01*
X86223Y139179D01*
X86170Y139445D01*
X85905Y139841D01*
X85508Y140107D01*
X85039Y140200D01*
X78740D01*
X78272Y140107D01*
X77875Y139841D01*
X77610Y139445D01*
X77557Y139179D01*
X77127Y138947D01*
X77017Y138938D01*
X76520Y139270D01*
X75590Y139455D01*
X74534D01*
X74055Y139823D01*
X73276Y140145D01*
X72441Y140255D01*
X66613D01*
Y142501D01*
X67145D01*
X67145Y148838D01*
X66945Y149255D01*
Y149338D01*
Y154230D01*
X64330Y151615D01*
X63623Y152322D01*
X66238Y154937D01*
D02*
G37*
G36*
X67436Y123176D02*
X67237Y122879D01*
X67067Y122028D01*
X67237Y121177D01*
X67436Y120879D01*
X68584Y122028D01*
X67436Y123176D01*
D02*
G37*
G36*
X395645Y129897D02*
X386245D01*
Y120497D01*
X395645D01*
Y129897D01*
D02*
G37*
G36*
X67436Y128176D02*
X67237Y127879D01*
X67067Y127028D01*
X67237Y126177D01*
X67436Y125879D01*
X68584Y127028D01*
X67436Y128176D01*
D02*
G37*
G36*
X390945Y139937D02*
X389718Y139776D01*
X388575Y139302D01*
X387593Y138549D01*
X386839Y137567D01*
X386366Y136424D01*
X386204Y135197D01*
X386366Y133970D01*
X386839Y132827D01*
X387593Y131845D01*
X388575Y131091D01*
X389718Y130618D01*
X390945Y130456D01*
X392172Y130618D01*
X393315Y131091D01*
X394297Y131845D01*
X395050Y132827D01*
X395524Y133970D01*
X395685Y135197D01*
X395524Y136424D01*
X395050Y137567D01*
X394297Y138549D01*
X393315Y139302D01*
X392172Y139776D01*
X390945Y139937D01*
D02*
G37*
G36*
X380945D02*
X379718Y139776D01*
X378574Y139302D01*
X377593Y138549D01*
X376839Y137567D01*
X376366Y136424D01*
X376204Y135197D01*
X376366Y133970D01*
X376839Y132827D01*
X377593Y131845D01*
X378574Y131091D01*
X379718Y130618D01*
X380945Y130456D01*
X382172Y130618D01*
X383315Y131091D01*
X384297Y131845D01*
X385050Y132827D01*
X385524Y133970D01*
X385685Y135197D01*
X385524Y136424D01*
X385050Y137567D01*
X384297Y138549D01*
X383315Y139302D01*
X382172Y139776D01*
X380945Y139937D01*
D02*
G37*
G36*
X302099Y63439D02*
X299290Y60630D01*
X302099Y57821D01*
X302514Y58360D01*
X302967Y59455D01*
X303122Y60630D01*
X302967Y61805D01*
X302514Y62899D01*
X302099Y63439D01*
D02*
G37*
G36*
X354685Y50567D02*
X353458Y50406D01*
X352315Y49932D01*
X351333Y49179D01*
X350580Y48197D01*
X350106Y47054D01*
X349945Y45827D01*
X350106Y44600D01*
X350580Y43457D01*
X351333Y42475D01*
X351458Y42379D01*
Y20628D01*
X348860Y18030D01*
X348347Y17362D01*
X348024Y16583D01*
X347914Y15748D01*
Y13054D01*
X347790Y12958D01*
X347036Y11976D01*
X346563Y10833D01*
X346401Y9606D01*
X346563Y8379D01*
X347036Y7236D01*
X347790Y6254D01*
X348772Y5501D01*
X349915Y5027D01*
X351142Y4866D01*
X352369Y5027D01*
X353512Y5501D01*
X354494Y6254D01*
X355247Y7236D01*
X355721Y8379D01*
X355882Y9606D01*
X355721Y10833D01*
X355247Y11976D01*
X354494Y12958D01*
X354369Y13054D01*
Y14411D01*
X356967Y17009D01*
X357480Y17677D01*
X357803Y18456D01*
X357913Y19291D01*
Y42379D01*
X358037Y42475D01*
X358791Y43457D01*
X359264Y44600D01*
X359426Y45827D01*
X359264Y47054D01*
X358791Y48197D01*
X358037Y49179D01*
X357055Y49932D01*
X355912Y50406D01*
X354685Y50567D01*
D02*
G37*
G36*
X344685D02*
X343458Y50406D01*
X342315Y49932D01*
X341333Y49179D01*
X340580Y48197D01*
X340106Y47054D01*
X339945Y45827D01*
X340106Y44600D01*
X340580Y43457D01*
X341333Y42475D01*
X341458Y42379D01*
Y20628D01*
X338860Y18030D01*
X338347Y17362D01*
X338024Y16583D01*
X337914Y15748D01*
Y13054D01*
X337790Y12958D01*
X337036Y11976D01*
X336563Y10833D01*
X336401Y9606D01*
X336563Y8379D01*
X337036Y7236D01*
X337790Y6254D01*
X338772Y5501D01*
X339915Y5027D01*
X341142Y4866D01*
X342369Y5027D01*
X343512Y5501D01*
X344494Y6254D01*
X345247Y7236D01*
X345721Y8379D01*
X345882Y9606D01*
X345721Y10833D01*
X345247Y11976D01*
X344494Y12958D01*
X344369Y13054D01*
Y14411D01*
X346968Y17009D01*
X347480Y17677D01*
X347803Y18456D01*
X347913Y19291D01*
Y42379D01*
X348037Y42475D01*
X348791Y43457D01*
X349264Y44600D01*
X349426Y45827D01*
X349264Y47054D01*
X348791Y48197D01*
X348037Y49179D01*
X347056Y49932D01*
X345912Y50406D01*
X344685Y50567D01*
D02*
G37*
G36*
X364685D02*
X363458Y50406D01*
X362315Y49932D01*
X361333Y49179D01*
X360580Y48197D01*
X360106Y47054D01*
X359945Y45827D01*
X360106Y44600D01*
X360580Y43457D01*
X361333Y42475D01*
X361458Y42379D01*
Y20628D01*
X358859Y18030D01*
X358347Y17362D01*
X358024Y16583D01*
X357914Y15748D01*
Y13054D01*
X357790Y12958D01*
X357036Y11976D01*
X356563Y10833D01*
X356401Y9606D01*
X356563Y8379D01*
X357036Y7236D01*
X357790Y6254D01*
X358771Y5501D01*
X359915Y5027D01*
X361142Y4866D01*
X362369Y5027D01*
X363512Y5501D01*
X364494Y6254D01*
X365247Y7236D01*
X365721Y8379D01*
X365882Y9606D01*
X365721Y10833D01*
X365247Y11976D01*
X364494Y12958D01*
X364369Y13054D01*
Y14411D01*
X366968Y17009D01*
X367480Y17677D01*
X367803Y18456D01*
X367913Y19291D01*
Y42379D01*
X368037Y42475D01*
X368791Y43457D01*
X369264Y44600D01*
X369426Y45827D01*
X369264Y47054D01*
X368791Y48197D01*
X368037Y49179D01*
X367056Y49932D01*
X365912Y50406D01*
X364685Y50567D01*
D02*
G37*
G36*
X389385Y50527D02*
X379985D01*
Y41127D01*
X381458D01*
Y20628D01*
X378859Y18030D01*
X378347Y17362D01*
X378024Y16583D01*
X377914Y15748D01*
Y13054D01*
X377790Y12958D01*
X377036Y11976D01*
X376563Y10833D01*
X376401Y9606D01*
X376563Y8379D01*
X377036Y7236D01*
X377790Y6254D01*
X378771Y5501D01*
X379915Y5027D01*
X381142Y4866D01*
X382369Y5027D01*
X383512Y5501D01*
X384494Y6254D01*
X385247Y7236D01*
X385721Y8379D01*
X385882Y9606D01*
X385721Y10833D01*
X385247Y11976D01*
X384494Y12958D01*
X384369Y13054D01*
Y14411D01*
X386967Y17009D01*
X387480Y17677D01*
X387803Y18456D01*
X387913Y19291D01*
Y41127D01*
X389385D01*
Y50527D01*
D02*
G37*
G36*
X374685Y50567D02*
X373458Y50406D01*
X372315Y49932D01*
X371333Y49179D01*
X370580Y48197D01*
X370106Y47054D01*
X369945Y45827D01*
X370106Y44600D01*
X370580Y43457D01*
X371333Y42475D01*
X371458Y42379D01*
Y20628D01*
X368860Y18030D01*
X368347Y17362D01*
X368024Y16583D01*
X367914Y15748D01*
Y13054D01*
X367790Y12958D01*
X367036Y11976D01*
X366563Y10833D01*
X366401Y9606D01*
X366563Y8379D01*
X367036Y7236D01*
X367790Y6254D01*
X368772Y5501D01*
X369915Y5027D01*
X371142Y4866D01*
X372369Y5027D01*
X373512Y5501D01*
X374494Y6254D01*
X375247Y7236D01*
X375721Y8379D01*
X375882Y9606D01*
X375721Y10833D01*
X375247Y11976D01*
X374494Y12958D01*
X374369Y13054D01*
Y14411D01*
X376968Y17009D01*
X377480Y17677D01*
X377803Y18456D01*
X377913Y19291D01*
Y42379D01*
X378037Y42475D01*
X378791Y43457D01*
X379264Y44600D01*
X379426Y45827D01*
X379264Y47054D01*
X378791Y48197D01*
X378037Y49179D01*
X377056Y49932D01*
X375912Y50406D01*
X374685Y50567D01*
D02*
G37*
G36*
X301236Y50527D02*
X291836D01*
Y41127D01*
X293308D01*
Y24355D01*
X293024Y23670D01*
X292914Y22835D01*
Y13054D01*
X292790Y12958D01*
X292036Y11976D01*
X291563Y10833D01*
X291401Y9606D01*
X291563Y8379D01*
X292036Y7236D01*
X292790Y6254D01*
X293772Y5501D01*
X294915Y5027D01*
X296142Y4866D01*
X297369Y5027D01*
X298512Y5501D01*
X299494Y6254D01*
X300247Y7236D01*
X300721Y8379D01*
X300882Y9606D01*
X300721Y10833D01*
X300247Y11976D01*
X299494Y12958D01*
X299369Y13054D01*
Y17377D01*
X299653Y18062D01*
X299763Y18898D01*
Y41127D01*
X301236D01*
Y50527D01*
D02*
G37*
G36*
X286536Y50567D02*
X285309Y50406D01*
X284165Y49932D01*
X283184Y49179D01*
X282430Y48197D01*
X281957Y47054D01*
X281795Y45827D01*
X281957Y44600D01*
X282430Y43457D01*
X283184Y42475D01*
X283308Y42379D01*
Y26324D01*
X283024Y25638D01*
X282914Y24803D01*
Y13054D01*
X282790Y12958D01*
X282036Y11976D01*
X281563Y10833D01*
X281401Y9606D01*
X281563Y8379D01*
X282036Y7236D01*
X282790Y6254D01*
X283771Y5501D01*
X284915Y5027D01*
X286142Y4866D01*
X287369Y5027D01*
X288512Y5501D01*
X289494Y6254D01*
X290247Y7236D01*
X290721Y8379D01*
X290882Y9606D01*
X290721Y10833D01*
X290247Y11976D01*
X289494Y12958D01*
X289369Y13054D01*
Y17377D01*
X289653Y18062D01*
X289763Y18898D01*
Y42379D01*
X289888Y42475D01*
X290641Y43457D01*
X291115Y44600D01*
X291276Y45827D01*
X291115Y47054D01*
X290641Y48197D01*
X289888Y49179D01*
X288906Y49932D01*
X287762Y50406D01*
X286536Y50567D01*
D02*
G37*
G36*
X314685D02*
X313458Y50406D01*
X312315Y49932D01*
X311333Y49179D01*
X310580Y48197D01*
X310106Y47054D01*
X309945Y45827D01*
X310106Y44600D01*
X310580Y43457D01*
X311333Y42475D01*
X311458Y42379D01*
Y22597D01*
X308859Y19999D01*
X308347Y19330D01*
X308024Y18552D01*
X307914Y17716D01*
Y13054D01*
X307790Y12958D01*
X307036Y11976D01*
X306563Y10833D01*
X306401Y9606D01*
X306563Y8379D01*
X307036Y7236D01*
X307790Y6254D01*
X308771Y5501D01*
X309915Y5027D01*
X311142Y4866D01*
X312369Y5027D01*
X313512Y5501D01*
X314494Y6254D01*
X315247Y7236D01*
X315721Y8379D01*
X315882Y9606D01*
X315721Y10833D01*
X315247Y11976D01*
X314494Y12958D01*
X314369Y13054D01*
Y16379D01*
X316968Y18978D01*
X317480Y19646D01*
X317803Y20425D01*
X317913Y21260D01*
Y42379D01*
X318037Y42475D01*
X318791Y43457D01*
X319264Y44600D01*
X319426Y45827D01*
X319264Y47054D01*
X318791Y48197D01*
X318037Y49179D01*
X317056Y49932D01*
X315912Y50406D01*
X314685Y50567D01*
D02*
G37*
G36*
X334685D02*
X333458Y50406D01*
X332315Y49932D01*
X331333Y49179D01*
X330580Y48197D01*
X330106Y47054D01*
X329945Y45827D01*
X330106Y44600D01*
X330580Y43457D01*
X331333Y42475D01*
X331458Y42379D01*
Y20628D01*
X328859Y18030D01*
X328347Y17362D01*
X328024Y16583D01*
X327914Y15748D01*
Y13054D01*
X327790Y12958D01*
X327036Y11976D01*
X326563Y10833D01*
X326401Y9606D01*
X326563Y8379D01*
X327036Y7236D01*
X327790Y6254D01*
X328771Y5501D01*
X329915Y5027D01*
X331142Y4866D01*
X332369Y5027D01*
X333512Y5501D01*
X334494Y6254D01*
X335247Y7236D01*
X335721Y8379D01*
X335882Y9606D01*
X335721Y10833D01*
X335247Y11976D01*
X334494Y12958D01*
X334369Y13054D01*
Y14411D01*
X336967Y17009D01*
X337480Y17677D01*
X337803Y18456D01*
X337913Y19291D01*
Y42379D01*
X338037Y42475D01*
X338791Y43457D01*
X339264Y44600D01*
X339426Y45827D01*
X339264Y47054D01*
X338791Y48197D01*
X338037Y49179D01*
X337055Y49932D01*
X335912Y50406D01*
X334685Y50567D01*
D02*
G37*
G36*
X324685D02*
X323458Y50406D01*
X322315Y49932D01*
X321333Y49179D01*
X320580Y48197D01*
X320106Y47054D01*
X319945Y45827D01*
X320106Y44600D01*
X320580Y43457D01*
X321333Y42475D01*
X321458Y42379D01*
Y20628D01*
X318860Y18030D01*
X318347Y17362D01*
X318024Y16583D01*
X317914Y15748D01*
Y13054D01*
X317790Y12958D01*
X317036Y11976D01*
X316563Y10833D01*
X316401Y9606D01*
X316563Y8379D01*
X317036Y7236D01*
X317790Y6254D01*
X318772Y5501D01*
X319915Y5027D01*
X321142Y4866D01*
X322369Y5027D01*
X323512Y5501D01*
X324494Y6254D01*
X325247Y7236D01*
X325721Y8379D01*
X325882Y9606D01*
X325721Y10833D01*
X325247Y11976D01*
X324494Y12958D01*
X324369Y13054D01*
Y14411D01*
X326968Y17009D01*
X327480Y17677D01*
X327803Y18456D01*
X327913Y19291D01*
Y42379D01*
X328037Y42475D01*
X328791Y43457D01*
X329264Y44600D01*
X329426Y45827D01*
X329264Y47054D01*
X328791Y48197D01*
X328037Y49179D01*
X327056Y49932D01*
X325912Y50406D01*
X324685Y50567D01*
D02*
G37*
G36*
X236142Y8899D02*
X233332Y6090D01*
X233872Y5675D01*
X234967Y5222D01*
X236142Y5067D01*
X237316Y5222D01*
X238411Y5675D01*
X238951Y6090D01*
X236142Y8899D01*
D02*
G37*
G36*
X288583Y59923D02*
X285773Y57113D01*
X286313Y56699D01*
X287408Y56246D01*
X288583Y56091D01*
X289757Y56246D01*
X290852Y56699D01*
X291392Y57113D01*
X288583Y59923D01*
D02*
G37*
G36*
X311142Y204347D02*
X309915Y204185D01*
X308771Y203712D01*
X307790Y202958D01*
X307036Y201976D01*
X306563Y200833D01*
X306401Y199606D01*
X306563Y198379D01*
X307036Y197236D01*
X307790Y196254D01*
X307914Y196159D01*
Y65330D01*
X303883D01*
Y55930D01*
X313283D01*
Y60765D01*
X313424Y60907D01*
X313937Y61575D01*
X314259Y62354D01*
X314369Y63189D01*
Y196159D01*
X314494Y196254D01*
X315247Y197236D01*
X315721Y198379D01*
X315882Y199606D01*
X315721Y200833D01*
X315247Y201976D01*
X314494Y202958D01*
X313512Y203712D01*
X312369Y204185D01*
X311142Y204347D01*
D02*
G37*
G36*
X298583Y59923D02*
X295774Y57113D01*
X296313Y56699D01*
X297408Y56246D01*
X298583Y56091D01*
X299758Y56246D01*
X300852Y56699D01*
X301392Y57113D01*
X298583Y59923D01*
D02*
G37*
G36*
X295066Y63439D02*
X294652Y62899D01*
X294199Y61805D01*
X294044Y60630D01*
X294199Y59455D01*
X294652Y58360D01*
X295066Y57821D01*
X297876Y60630D01*
X295066Y63439D01*
D02*
G37*
G36*
X292099D02*
X289290Y60630D01*
X292099Y57821D01*
X292513Y58360D01*
X292967Y59455D01*
X293122Y60630D01*
X292967Y61805D01*
X292513Y62899D01*
X292099Y63439D01*
D02*
G37*
G36*
X94472Y16041D02*
Y12699D01*
X96143Y14370D01*
X94472Y16041D01*
D02*
G37*
G36*
X99309Y16748D02*
X95179D01*
X97204Y14724D01*
X96850Y14370D01*
X97204Y14017D01*
X95179Y11992D01*
X99309D01*
X97284Y14017D01*
X97638Y14370D01*
X97284Y14724D01*
X99309Y16748D01*
D02*
G37*
G36*
X100016Y16041D02*
X98345Y14370D01*
X100016Y12699D01*
Y16041D01*
D02*
G37*
G36*
X240052Y48636D02*
X236889Y45473D01*
X236536Y45827D01*
X236182Y45473D01*
X233019Y48636D01*
X232605Y48096D01*
X232151Y47002D01*
X231997Y45827D01*
X232151Y44652D01*
X232605Y43557D01*
X233308Y42641D01*
Y23174D01*
X233024Y22489D01*
X232914Y21653D01*
Y12792D01*
X232211Y11876D01*
X231758Y10781D01*
X231603Y9606D01*
X231758Y8432D01*
X232211Y7337D01*
X232625Y6797D01*
X235788Y9960D01*
X236142Y9606D01*
X236495Y9960D01*
X239658Y6797D01*
X240072Y7337D01*
X240526Y8432D01*
X240681Y9606D01*
X240526Y10781D01*
X240072Y11876D01*
X239369Y12792D01*
Y17377D01*
X239653Y18062D01*
X239763Y18898D01*
Y42641D01*
X240466Y43557D01*
X240920Y44652D01*
X241074Y45827D01*
X240920Y47002D01*
X240466Y48096D01*
X240052Y48636D01*
D02*
G37*
G36*
X189370Y56305D02*
X187910Y56161D01*
X186505Y55735D01*
X185211Y55043D01*
X184077Y54112D01*
X183146Y52978D01*
X182454Y51684D01*
X182028Y50279D01*
X181884Y48819D01*
X182028Y47358D01*
X182454Y45954D01*
X183146Y44660D01*
X184077Y43525D01*
X185211Y42595D01*
X186505Y41903D01*
X187910Y41477D01*
X189370Y41333D01*
X190831Y41477D01*
X192235Y41903D01*
X193529Y42595D01*
X194664Y43525D01*
X195595Y44660D01*
X196286Y45954D01*
X196712Y47358D01*
X196856Y48819D01*
X196712Y50279D01*
X196286Y51684D01*
X195595Y52978D01*
X194664Y54112D01*
X193529Y55043D01*
X192235Y55735D01*
X190831Y56161D01*
X189370Y56305D01*
D02*
G37*
G36*
X163255Y239030D02*
X162841Y238490D01*
X162387Y237395D01*
X162233Y236221D01*
X162387Y235046D01*
X162841Y233951D01*
X163255Y233411D01*
X166065Y236221D01*
X163255Y239030D01*
D02*
G37*
G36*
X385748Y241906D02*
X384521Y241744D01*
X383378Y241271D01*
X382396Y240517D01*
X381643Y239536D01*
X381169Y238392D01*
X381007Y237165D01*
X381169Y235938D01*
X381643Y234795D01*
X382396Y233813D01*
X383378Y233060D01*
X384521Y232586D01*
X385748Y232425D01*
X386975Y232586D01*
X388118Y233060D01*
X389100Y233813D01*
X389853Y234795D01*
X390327Y235938D01*
X390489Y237165D01*
X390327Y238392D01*
X389853Y239536D01*
X389100Y240517D01*
X388118Y241271D01*
X386975Y241744D01*
X385748Y241906D01*
D02*
G37*
G36*
X170288Y239030D02*
X167479Y236221D01*
X170288Y233411D01*
X170702Y233951D01*
X171156Y235046D01*
X171310Y236221D01*
X171156Y237395D01*
X170702Y238490D01*
X170288Y239030D01*
D02*
G37*
G36*
X77835Y241025D02*
X75025Y238216D01*
X75565Y237802D01*
X76660Y237348D01*
X77835Y237193D01*
X79009Y237348D01*
X80104Y237802D01*
X80644Y238216D01*
X77835Y241025D01*
D02*
G37*
G36*
X166772Y240759D02*
X165597Y240605D01*
X164502Y240151D01*
X163962Y239737D01*
X166772Y236928D01*
X169581Y239737D01*
X169041Y240151D01*
X167946Y240605D01*
X166772Y240759D01*
D02*
G37*
G36*
X181472Y240920D02*
X172072D01*
Y231521D01*
X181472D01*
Y240920D01*
D02*
G37*
G36*
X156772Y240961D02*
X155545Y240800D01*
X154401Y240326D01*
X153419Y239573D01*
X152666Y238591D01*
X152192Y237448D01*
X152031Y236221D01*
X152192Y234994D01*
X152666Y233850D01*
X153419Y232869D01*
X154401Y232115D01*
X155545Y231642D01*
X156772Y231480D01*
X157999Y231642D01*
X159142Y232115D01*
X160124Y232869D01*
X160877Y233850D01*
X161351Y234994D01*
X161512Y236221D01*
X161351Y237448D01*
X160877Y238591D01*
X160124Y239573D01*
X159142Y240326D01*
X157999Y240800D01*
X156772Y240961D01*
D02*
G37*
G36*
X166772Y235513D02*
X163962Y232704D01*
X164502Y232290D01*
X165597Y231836D01*
X166772Y231682D01*
X167946Y231836D01*
X169041Y232290D01*
X169581Y232704D01*
X166772Y235513D01*
D02*
G37*
G36*
X375748Y241906D02*
X374521Y241744D01*
X373378Y241271D01*
X372396Y240517D01*
X371642Y239536D01*
X371169Y238392D01*
X371007Y237165D01*
X371169Y235938D01*
X371642Y234795D01*
X372396Y233813D01*
X373378Y233060D01*
X374521Y232586D01*
X375748Y232425D01*
X376975Y232586D01*
X378118Y233060D01*
X379100Y233813D01*
X379853Y234795D01*
X380327Y235938D01*
X380488Y237165D01*
X380327Y238392D01*
X379853Y239536D01*
X379100Y240517D01*
X378118Y241271D01*
X376975Y241744D01*
X375748Y241906D01*
D02*
G37*
G36*
X365748D02*
X364521Y241744D01*
X363378Y241271D01*
X362396Y240517D01*
X361643Y239536D01*
X361169Y238392D01*
X361007Y237165D01*
X361169Y235938D01*
X361643Y234795D01*
X362396Y233813D01*
X363378Y233060D01*
X364521Y232586D01*
X365748Y232425D01*
X366975Y232586D01*
X368118Y233060D01*
X369100Y233813D01*
X369853Y234795D01*
X370327Y235938D01*
X370489Y237165D01*
X370327Y238392D01*
X369853Y239536D01*
X369100Y240517D01*
X368118Y241271D01*
X366975Y241744D01*
X365748Y241906D01*
D02*
G37*
G36*
X119567Y241025D02*
X116758Y238216D01*
X117297Y237802D01*
X118392Y237348D01*
X119567Y237193D01*
X120742Y237348D01*
X121836Y237802D01*
X122376Y238216D01*
X119567Y241025D01*
D02*
G37*
G36*
X259213Y253795D02*
X258128Y253652D01*
X257118Y253234D01*
X256251Y252568D01*
X255585Y251701D01*
X255167Y250690D01*
X255024Y249606D01*
X255167Y248522D01*
X255585Y247512D01*
X256251Y246644D01*
X257118Y245979D01*
X258128Y245560D01*
X259213Y245418D01*
X260297Y245560D01*
X261307Y245979D01*
X262174Y246644D01*
X262840Y247512D01*
X263259Y248522D01*
X263401Y249606D01*
X263259Y250690D01*
X262840Y251701D01*
X262174Y252568D01*
X261307Y253234D01*
X260297Y253652D01*
X259213Y253795D01*
D02*
G37*
G36*
X119567Y246271D02*
X118392Y246116D01*
X117297Y245663D01*
X116758Y245249D01*
X119567Y242439D01*
X122376Y245249D01*
X121836Y245663D01*
X120742Y246116D01*
X119567Y246271D01*
D02*
G37*
G36*
X253365Y253759D02*
X245060D01*
Y245454D01*
X253365D01*
Y253759D01*
D02*
G37*
G36*
X259213Y263795D02*
X258128Y263652D01*
X257118Y263234D01*
X256251Y262568D01*
X255585Y261701D01*
X255167Y260690D01*
X255024Y259606D01*
X255167Y258522D01*
X255585Y257512D01*
X256251Y256645D01*
X257118Y255979D01*
X258128Y255560D01*
X259213Y255418D01*
X260297Y255560D01*
X261307Y255979D01*
X262174Y256645D01*
X262840Y257512D01*
X263259Y258522D01*
X263401Y259606D01*
X263259Y260690D01*
X262840Y261701D01*
X262174Y262568D01*
X261307Y263234D01*
X260297Y263652D01*
X259213Y263795D01*
D02*
G37*
G36*
X249213D02*
X248129Y263652D01*
X247118Y263234D01*
X246251Y262568D01*
X245585Y261701D01*
X245167Y260690D01*
X245024Y259606D01*
X245167Y258522D01*
X245585Y257512D01*
X246251Y256645D01*
X247118Y255979D01*
X248129Y255560D01*
X249213Y255418D01*
X250297Y255560D01*
X251307Y255979D01*
X252174Y256645D01*
X252840Y257512D01*
X253258Y258522D01*
X253401Y259606D01*
X253258Y260690D01*
X252840Y261701D01*
X252174Y262568D01*
X251307Y263234D01*
X250297Y263652D01*
X249213Y263795D01*
D02*
G37*
G36*
X81351Y244542D02*
X78542Y241732D01*
X81351Y238923D01*
X81765Y239463D01*
X82219Y240558D01*
X82373Y241732D01*
X82219Y242907D01*
X81765Y244002D01*
X81351Y244542D01*
D02*
G37*
G36*
X74318D02*
X73904Y244002D01*
X73450Y242907D01*
X73296Y241732D01*
X73450Y240558D01*
X73904Y239463D01*
X74318Y238923D01*
X77127Y241732D01*
X74318Y244542D01*
D02*
G37*
G36*
X116051D02*
X115636Y244002D01*
X115183Y242907D01*
X115028Y241732D01*
X115183Y240558D01*
X115636Y239463D01*
X116051Y238923D01*
X118860Y241732D01*
X116051Y244542D01*
D02*
G37*
G36*
X77835Y246271D02*
X76660Y246116D01*
X75565Y245663D01*
X75025Y245249D01*
X77835Y242439D01*
X80644Y245249D01*
X80104Y245663D01*
X79009Y246116D01*
X77835Y246271D01*
D02*
G37*
G36*
X123083Y244542D02*
X120274Y241732D01*
X123083Y238923D01*
X123498Y239463D01*
X123951Y240558D01*
X124106Y241732D01*
X123951Y242907D01*
X123498Y244002D01*
X123083Y244542D01*
D02*
G37*
G36*
X291142Y198899D02*
X288333Y196090D01*
X288872Y195676D01*
X289967Y195222D01*
X291142Y195067D01*
X292317Y195222D01*
X293411Y195676D01*
X293951Y196090D01*
X291142Y198899D01*
D02*
G37*
G36*
X241142Y204347D02*
X239915Y204185D01*
X238772Y203712D01*
X237790Y202958D01*
X237036Y201976D01*
X236563Y200833D01*
X236401Y199606D01*
X236563Y198379D01*
X237036Y197236D01*
X237790Y196254D01*
X238772Y195501D01*
X239915Y195027D01*
X241142Y194866D01*
X242369Y195027D01*
X243512Y195501D01*
X244494Y196254D01*
X245247Y197236D01*
X245721Y198379D01*
X245882Y199606D01*
X245721Y200833D01*
X245247Y201976D01*
X244494Y202958D01*
X243512Y203712D01*
X242369Y204185D01*
X241142Y204347D01*
D02*
G37*
G36*
X301142Y198899D02*
X298333Y196090D01*
X298872Y195676D01*
X299967Y195222D01*
X301142Y195067D01*
X302316Y195222D01*
X303411Y195676D01*
X303951Y196090D01*
X301142Y198899D01*
D02*
G37*
G36*
X294658Y202416D02*
X291849Y199606D01*
X294658Y196797D01*
X295073Y197337D01*
X295526Y198432D01*
X295681Y199606D01*
X295526Y200781D01*
X295073Y201876D01*
X294658Y202416D01*
D02*
G37*
G36*
X287625D02*
X287211Y201876D01*
X286758Y200781D01*
X286603Y199606D01*
X286758Y198432D01*
X287211Y197337D01*
X287625Y196797D01*
X290435Y199606D01*
X287625Y202416D01*
D02*
G37*
G36*
X171260Y189057D02*
X168450Y186247D01*
X168990Y185833D01*
X170085Y185380D01*
X171260Y185225D01*
X172435Y185380D01*
X173529Y185833D01*
X174069Y186247D01*
X171260Y189057D01*
D02*
G37*
G36*
X381142Y204347D02*
X379915Y204185D01*
X378771Y203712D01*
X377790Y202958D01*
X377036Y201976D01*
X376563Y200833D01*
X376401Y199606D01*
X376563Y198379D01*
X377036Y197236D01*
X377790Y196254D01*
X377914Y196159D01*
Y175157D01*
X378024Y174322D01*
X378347Y173544D01*
X378859Y172875D01*
X395749Y155985D01*
X396418Y155473D01*
X397196Y155150D01*
X397399Y155123D01*
X401103Y151419D01*
Y110392D01*
X376615Y85904D01*
X376102Y85236D01*
X375780Y84457D01*
X375670Y83622D01*
Y65330D01*
X374198D01*
Y55930D01*
X383598D01*
Y65330D01*
X382125D01*
Y82285D01*
X406613Y106773D01*
X407126Y107441D01*
X407448Y108220D01*
X407558Y109055D01*
Y152756D01*
X407448Y153591D01*
X407126Y154370D01*
X406613Y155038D01*
X401101Y160550D01*
X400433Y161063D01*
X399654Y161385D01*
X399452Y161412D01*
X388687Y172176D01*
X389023Y172547D01*
X389542Y172122D01*
X390836Y171430D01*
X392240Y171004D01*
X393701Y170860D01*
X395161Y171004D01*
X396566Y171430D01*
X397860Y172122D01*
X398994Y173053D01*
X399925Y174187D01*
X400617Y175482D01*
X401043Y176886D01*
X401187Y178347D01*
X401043Y179807D01*
X400617Y181211D01*
X399925Y182506D01*
X398994Y183640D01*
X397860Y184571D01*
X396566Y185263D01*
X395161Y185689D01*
X393701Y185833D01*
X392240Y185689D01*
X390836Y185263D01*
X389542Y184571D01*
X388407Y183640D01*
X387476Y182506D01*
X386785Y181211D01*
X386359Y179807D01*
X386215Y178347D01*
X386359Y176886D01*
X386785Y175482D01*
X387476Y174187D01*
X387902Y173669D01*
X387531Y173333D01*
X384369Y176494D01*
Y196159D01*
X384494Y196254D01*
X385247Y197236D01*
X385721Y198379D01*
X385882Y199606D01*
X385721Y200833D01*
X385247Y201976D01*
X384494Y202958D01*
X383512Y203712D01*
X382369Y204185D01*
X381142Y204347D01*
D02*
G37*
G36*
X167743Y192573D02*
X167329Y192033D01*
X166876Y190938D01*
X166721Y189764D01*
X166876Y188589D01*
X167329Y187494D01*
X167743Y186954D01*
X170553Y189764D01*
X167743Y192573D01*
D02*
G37*
G36*
X171260Y194303D02*
X170085Y194148D01*
X168990Y193694D01*
X168450Y193280D01*
X171260Y190471D01*
X174069Y193280D01*
X173529Y193694D01*
X172435Y194148D01*
X171260Y194303D01*
D02*
G37*
G36*
X174776Y192573D02*
X171967Y189764D01*
X174776Y186954D01*
X175191Y187494D01*
X175644Y188589D01*
X175799Y189764D01*
X175644Y190938D01*
X175191Y192033D01*
X174776Y192573D01*
D02*
G37*
G36*
X297625Y202416D02*
X297211Y201876D01*
X296758Y200781D01*
X296603Y199606D01*
X296758Y198432D01*
X297211Y197337D01*
X297625Y196797D01*
X300435Y199606D01*
X297625Y202416D01*
D02*
G37*
G36*
X215118Y221669D02*
X214034Y221526D01*
X213024Y221108D01*
X212156Y220442D01*
X211491Y219575D01*
X211072Y218564D01*
X210929Y217480D01*
X211072Y216396D01*
X211491Y215386D01*
X212156Y214519D01*
X213024Y213853D01*
X214034Y213435D01*
X215118Y213292D01*
X216202Y213435D01*
X217212Y213853D01*
X218080Y214519D01*
X218745Y215386D01*
X219164Y216396D01*
X219307Y217480D01*
X219164Y218564D01*
X218745Y219575D01*
X218080Y220442D01*
X217212Y221108D01*
X216202Y221526D01*
X215118Y221669D01*
D02*
G37*
G36*
X205118D02*
X204034Y221526D01*
X203024Y221108D01*
X202156Y220442D01*
X201491Y219575D01*
X201072Y218564D01*
X200929Y217480D01*
X201072Y216396D01*
X201491Y215386D01*
X202156Y214519D01*
X203024Y213853D01*
X204034Y213435D01*
X205118Y213292D01*
X206202Y213435D01*
X207212Y213853D01*
X208080Y214519D01*
X208746Y215386D01*
X209164Y216396D01*
X209307Y217480D01*
X209164Y218564D01*
X208746Y219575D01*
X208080Y220442D01*
X207212Y221108D01*
X206202Y221526D01*
X205118Y221669D01*
D02*
G37*
G36*
X375748Y231906D02*
X374521Y231744D01*
X373378Y231271D01*
X372396Y230517D01*
X371642Y229536D01*
X371169Y228392D01*
X371007Y227165D01*
X371169Y225938D01*
X371642Y224795D01*
X372396Y223813D01*
X373378Y223060D01*
X374521Y222586D01*
X375748Y222425D01*
X376975Y222586D01*
X378118Y223060D01*
X379100Y223813D01*
X379853Y224795D01*
X380327Y225938D01*
X380488Y227165D01*
X380327Y228392D01*
X379853Y229536D01*
X379100Y230517D01*
X378118Y231271D01*
X376975Y231744D01*
X375748Y231906D01*
D02*
G37*
G36*
X370448Y231865D02*
X361048D01*
Y222465D01*
X370448D01*
Y231865D01*
D02*
G37*
G36*
X385748Y231906D02*
X384521Y231744D01*
X383378Y231271D01*
X382396Y230517D01*
X381643Y229536D01*
X381169Y228392D01*
X381007Y227165D01*
X381169Y225938D01*
X381643Y224795D01*
X382396Y223813D01*
X383378Y223060D01*
X384521Y222586D01*
X385748Y222425D01*
X386975Y222586D01*
X388118Y223060D01*
X389100Y223813D01*
X389853Y224795D01*
X390327Y225938D01*
X390489Y227165D01*
X390327Y228392D01*
X389853Y229536D01*
X389100Y230517D01*
X388118Y231271D01*
X386975Y231744D01*
X385748Y231906D01*
D02*
G37*
G36*
X291142Y204145D02*
X289967Y203990D01*
X288872Y203537D01*
X288333Y203123D01*
X291142Y200313D01*
X293951Y203123D01*
X293411Y203537D01*
X292317Y203990D01*
X291142Y204145D01*
D02*
G37*
G36*
X304658Y202416D02*
X301849Y199606D01*
X304658Y196797D01*
X305072Y197337D01*
X305526Y198432D01*
X305681Y199606D01*
X305526Y200781D01*
X305072Y201876D01*
X304658Y202416D01*
D02*
G37*
G36*
X301142Y204145D02*
X299967Y203990D01*
X298872Y203537D01*
X298333Y203123D01*
X301142Y200313D01*
X303951Y203123D01*
X303411Y203537D01*
X302316Y203990D01*
X301142Y204145D01*
D02*
G37*
G36*
X209271Y211633D02*
X200965D01*
Y203328D01*
X209271D01*
Y211633D01*
D02*
G37*
G36*
X215118Y211669D02*
X214034Y211526D01*
X213024Y211108D01*
X212156Y210442D01*
X211491Y209575D01*
X211072Y208564D01*
X210929Y207480D01*
X211072Y206396D01*
X211491Y205386D01*
X212156Y204519D01*
X213024Y203853D01*
X214034Y203434D01*
X215118Y203292D01*
X216202Y203434D01*
X217212Y203853D01*
X218080Y204519D01*
X218745Y205386D01*
X219164Y206396D01*
X219307Y207480D01*
X219164Y208564D01*
X218745Y209575D01*
X218080Y210442D01*
X217212Y211108D01*
X216202Y211526D01*
X215118Y211669D01*
D02*
G37*
%LPD*%
D10*
X63386Y145669D02*
D03*
Y151969D02*
D03*
D14*
X82835Y27559D02*
X96822D01*
X132649Y63386D01*
X194095D01*
X278583Y56142D02*
Y60630D01*
X168819Y162205D02*
X171260Y159764D01*
X166929Y162205D02*
X168819D01*
X157480Y171653D02*
X166929Y162205D01*
X157480Y171653D02*
Y192913D01*
X190551Y225984D01*
X244764D01*
X271142Y199606D01*
X251142Y63189D02*
Y199606D01*
X248583Y60630D02*
X251142Y63189D01*
X258583Y197047D02*
X261142Y199606D01*
X258583Y60630D02*
Y197047D01*
X281142Y63189D02*
Y199606D01*
X311142Y63189D02*
Y199606D01*
X308583Y60630D02*
X311142Y63189D01*
X341142Y62874D02*
Y199606D01*
X328898Y60630D02*
X331142Y62874D01*
Y199606D01*
X226536Y18898D02*
Y45827D01*
X216536Y18898D02*
Y45827D01*
X206536Y10000D02*
Y45827D01*
X216142Y9606D02*
Y18504D01*
X226142Y9606D02*
Y18504D01*
X236142Y9606D02*
Y21653D01*
X236536Y18898D02*
Y45827D01*
X246142Y9606D02*
Y21260D01*
X246536Y18898D02*
Y45827D01*
X256142Y9606D02*
Y22835D01*
X256536Y18898D02*
Y45827D01*
X266142Y9606D02*
Y22441D01*
X266536Y18898D02*
Y45827D01*
X276142Y9606D02*
Y23228D01*
X276536Y18898D02*
Y45827D01*
X286142Y9606D02*
Y24803D01*
X286536Y18898D02*
Y45827D01*
X296142Y9606D02*
Y22835D01*
X296536Y18898D02*
Y45827D01*
X344685Y19291D02*
Y45827D01*
X334685Y19291D02*
Y45827D01*
X324685Y19291D02*
Y45827D01*
X354685Y19291D02*
Y45827D01*
X364685Y19291D02*
Y45827D01*
X374685Y19291D02*
Y45827D01*
X384685Y19291D02*
Y45827D01*
X311142Y9606D02*
Y17716D01*
X321142Y9606D02*
Y15748D01*
X324685Y19291D01*
X331142Y9606D02*
Y15748D01*
X334685Y19291D01*
X311142Y17716D02*
X314685Y21260D01*
Y45827D01*
X341142Y9606D02*
Y15748D01*
X344685Y19291D01*
X351142Y9606D02*
Y15748D01*
X354685Y19291D01*
X361142Y9606D02*
Y15748D01*
X364685Y19291D01*
X371142Y9606D02*
Y15748D01*
X374685Y19291D01*
X381142Y9606D02*
Y15748D01*
X384685Y19291D01*
X381142Y175157D02*
Y199606D01*
Y175157D02*
X398031Y158268D01*
X398819D01*
X404331Y152756D01*
X378898Y60630D02*
Y83622D01*
X404331Y109055D01*
Y152756D01*
X368898Y60630D02*
Y193307D01*
X371142Y195551D01*
Y199606D01*
X358898Y60630D02*
X361142Y62874D01*
Y199606D01*
X348898Y60630D02*
X351142Y62874D01*
Y199606D01*
X70866Y29527D02*
Y57087D01*
X82835Y27559D02*
X177660Y122384D01*
X72441Y132028D02*
Y137028D01*
X91339Y132028D02*
Y137028D01*
X53150Y127165D02*
X63012Y137028D01*
X53150Y69291D02*
Y127165D01*
Y69291D02*
X65354Y57087D01*
X91339Y137028D02*
X109075D01*
X63386Y137402D02*
Y145669D01*
X63012Y137028D02*
X72441D01*
X177660Y122384D02*
Y176164D01*
X175591D02*
X177660D01*
X175591Y175433D02*
Y176164D01*
X171260Y179764D02*
X175591Y175433D01*
X194095Y63386D02*
X204331Y53150D01*
X275590D01*
X278583Y56142D01*
D15*
X139820Y122384D02*
X177660D01*
X45276Y216929D02*
X139820Y122384D01*
X45276Y216929D02*
Y244488D01*
X50000Y249213D01*
X85236D01*
X98425Y236024D01*
X238504Y1969D02*
X246142Y9606D01*
X187008Y1969D02*
X238504D01*
X161024Y27953D02*
X187008Y1969D01*
X119173Y27953D02*
X161024D01*
X111102Y159764D02*
X171260D01*
X50394Y220472D02*
X111102Y159764D01*
X50394Y220472D02*
Y236024D01*
Y241929D02*
X67638D01*
X98425D02*
X109370D01*
X338898Y60630D02*
X341142Y62874D01*
X97244Y20276D02*
X104921Y27953D01*
X109173D01*
D18*
X384685Y45827D02*
D03*
X176772Y236221D02*
D03*
X365748Y227165D02*
D03*
X308583Y60630D02*
D03*
X378898D02*
D03*
X72835Y27559D02*
D03*
X296536Y45827D02*
D03*
D19*
X374685D02*
D03*
X364685D02*
D03*
X354685D02*
D03*
X344685D02*
D03*
X334685D02*
D03*
X324685D02*
D03*
X314685D02*
D03*
X166772Y236221D02*
D03*
X156772D02*
D03*
X119173Y27953D02*
D03*
X109173D02*
D03*
X365748Y237165D02*
D03*
X375748Y227165D02*
D03*
Y237165D02*
D03*
X385748Y227165D02*
D03*
Y237165D02*
D03*
X380945Y125197D02*
D03*
X390945Y135197D02*
D03*
X380945D02*
D03*
X390945Y145197D02*
D03*
X380945D02*
D03*
X241142Y199606D02*
D03*
X206142Y9606D02*
D03*
X216142D02*
D03*
X226142D02*
D03*
X236142D02*
D03*
X246142D02*
D03*
X256142D02*
D03*
X266142D02*
D03*
X276142D02*
D03*
X286142D02*
D03*
X296142D02*
D03*
X311142D02*
D03*
X321142D02*
D03*
X331142D02*
D03*
X341142D02*
D03*
X351142D02*
D03*
X361142D02*
D03*
X371142D02*
D03*
X381142D02*
D03*
X298583Y60630D02*
D03*
X288583D02*
D03*
X278583D02*
D03*
X268583D02*
D03*
X258583D02*
D03*
X248583D02*
D03*
X238583D02*
D03*
X236536Y45827D02*
D03*
X338898Y60630D02*
D03*
X77835Y241732D02*
D03*
X67835D02*
D03*
X119567D02*
D03*
X109567D02*
D03*
X82835Y27559D02*
D03*
X171260Y189764D02*
D03*
Y179764D02*
D03*
Y169764D02*
D03*
Y159764D02*
D03*
Y149606D02*
D03*
X381142Y199606D02*
D03*
X311142D02*
D03*
X301142D02*
D03*
X291142D02*
D03*
X281142D02*
D03*
X271142D02*
D03*
X261142D02*
D03*
X251142D02*
D03*
X331142D02*
D03*
X341142D02*
D03*
X351142D02*
D03*
X361142D02*
D03*
X371142D02*
D03*
X348898Y60630D02*
D03*
X328898D02*
D03*
X358898D02*
D03*
X368898D02*
D03*
X246536Y45827D02*
D03*
X226536D02*
D03*
X216536D02*
D03*
X206536D02*
D03*
X256536D02*
D03*
X266536D02*
D03*
X276536D02*
D03*
X286536D02*
D03*
D20*
X194095Y236614D02*
D03*
X393701Y178347D02*
D03*
X394094Y68504D02*
D03*
X189370Y48819D02*
D03*
D21*
X259213Y259606D02*
D03*
Y249606D02*
D03*
X249213Y259606D02*
D03*
X215118Y217480D02*
D03*
Y207480D02*
D03*
X205118Y217480D02*
D03*
D22*
X249213Y249606D02*
D03*
X205118Y207480D02*
D03*
D23*
X390945Y125197D02*
D03*
X171260Y139764D02*
D03*
D24*
X70866Y86614D02*
D03*
Y57087D02*
D03*
Y66929D02*
D03*
Y76772D02*
D03*
D25*
X109075Y137028D02*
D03*
D26*
X98425Y236024D02*
D03*
Y241929D02*
D03*
X97244Y20276D02*
D03*
Y14370D02*
D03*
X50394Y236024D02*
D03*
Y241929D02*
D03*
D27*
X72441Y122028D02*
D03*
Y127028D02*
D03*
Y132028D02*
D03*
Y137028D02*
D03*
X91339Y122028D02*
D03*
Y127028D02*
D03*
Y132028D02*
D03*
Y137028D02*
D03*
D28*
X65354Y57087D02*
X70866D01*
D29*
X81890Y129528D02*
D03*
M02*
