G04 Layer_Color=2752767*
%FSLAX25Y25*%
%MOIN*%
G70*
G01*
G75*
%ADD41C,0.00500*%
%ADD42C,0.00667*%
D41*
X354299Y116110D02*
Y120110D01*
X358299D01*
Y116110D01*
X354299D01*
X344299D02*
Y120110D01*
X348299D01*
Y116110D01*
X344299D01*
X334299D02*
Y120110D01*
X338299D01*
Y116110D01*
X334299D01*
X110000Y302500D02*
X108000Y306500D01*
X112000D01*
X110000Y302500D01*
X120000D02*
X118000Y306500D01*
X122000D01*
X120000Y302500D01*
X130000D02*
X128000Y306500D01*
X132000D01*
X130000Y302500D01*
X140000D02*
X138000Y306500D01*
X142000D01*
X140000Y302500D01*
X150000D02*
X148000Y306500D01*
X152000D01*
X150000Y302500D01*
X160000D02*
X158000Y306500D01*
X162000D01*
X160000Y302500D01*
X205945Y230284D02*
X203945Y234284D01*
X207945D01*
X205945Y230284D01*
X215945D02*
X213945Y234284D01*
X217945D01*
X215945Y230284D01*
X225945D02*
X223945Y234284D01*
X227945D01*
X225945Y230284D01*
X235945D02*
X233945Y234284D01*
X237945D01*
X235945Y230284D01*
X245945D02*
X243945Y234284D01*
X247945D01*
X245945Y230284D01*
X255945D02*
X253945Y234284D01*
X257945D01*
X255945Y230284D01*
X265945D02*
X263945Y234284D01*
X267945D01*
X265945Y230284D01*
X275945D02*
X273945Y234284D01*
X277945D01*
X275945Y230284D01*
X270945Y187284D02*
X271945Y188284D01*
X272945D01*
X271945Y189284D01*
X272945Y190284D01*
X271945D01*
X270945Y191284D01*
X269945Y190284D01*
X268945D01*
X269945Y189284D01*
X268945Y188284D01*
X269945D01*
X270945Y187284D01*
X210945D02*
X211945Y188284D01*
X212945D01*
X211945Y189284D01*
X212945Y190284D01*
X211945D01*
X210945Y191284D01*
X209945Y190284D01*
X208945D01*
X209945Y189284D01*
X208945Y188284D01*
X209945D01*
X210945Y187284D01*
X222441Y139732D02*
X220441Y143732D01*
X224441D01*
X222441Y139732D01*
Y149732D02*
X220441Y153732D01*
X224441D01*
X222441Y149732D01*
X232441Y139732D02*
X230441Y143732D01*
X234441D01*
X232441Y139732D01*
Y149732D02*
X230441Y153732D01*
X234441D01*
X232441Y149732D01*
X242441Y139732D02*
X240441Y143732D01*
X244441D01*
X242441Y139732D01*
Y149732D02*
X240441Y153732D01*
X244441D01*
X242441Y149732D01*
X110531Y168512D02*
X108531Y172512D01*
X112531D01*
X110531Y168512D01*
Y178512D02*
X108531Y182512D01*
X112531D01*
X110531Y178512D01*
X110925Y219201D02*
X108925Y223201D01*
X112925D01*
X110925Y219201D01*
Y229201D02*
X108925Y233201D01*
X112925D01*
X110925Y229201D01*
X361000Y302500D02*
X359000Y306500D01*
X363000D01*
X361000Y302500D01*
X351000D02*
X349000Y306500D01*
X353000D01*
X351000Y302500D01*
X341000D02*
X339000Y306500D01*
X343000D01*
X341000Y302500D01*
X331000D02*
X329000Y306500D01*
X333000D01*
X331000Y302500D01*
X162819Y230189D02*
X160819Y234189D01*
X164819D01*
X162819Y230189D01*
X152819D02*
X150819Y234189D01*
X154819D01*
X152819Y230189D01*
X172819D02*
X170819Y234189D01*
X174819D01*
X172819Y230189D01*
X182819D02*
X180819Y234189D01*
X184819D01*
X182819Y230189D01*
X392700Y168500D02*
X390700Y172500D01*
X394700D01*
X392700Y168500D01*
X402700D02*
X400700Y172500D01*
X404700D01*
X402700Y168500D01*
X412700D02*
X410700Y172500D01*
X414700D01*
X412700Y168500D01*
X458500Y134000D02*
X456500Y138000D01*
X460500D01*
X458500Y134000D01*
Y144000D02*
X456500Y148000D01*
X460500D01*
X458500Y144000D01*
Y267500D02*
X456500Y271500D01*
X460500D01*
X458500Y267500D01*
Y277500D02*
X456500Y281500D01*
X460500D01*
X458500Y277500D01*
X384475Y301150D02*
X385475Y303150D01*
X384475Y305150D01*
X386475Y304150D01*
X388475Y305150D01*
X387475Y303150D01*
X388475Y301150D01*
X386475Y302150D01*
X384475Y301150D01*
X429475D02*
X430475Y303150D01*
X429475Y305150D01*
X431475Y304150D01*
X433475Y305150D01*
X432475Y303150D01*
X433475Y301150D01*
X431475Y302150D01*
X429475Y301150D01*
X426475Y276150D02*
X424475Y280150D01*
X428475D01*
X426475Y276150D01*
X416475D02*
X414475Y280150D01*
X418475D01*
X416475Y276150D01*
X406475D02*
X404475Y280150D01*
X408475D01*
X406475Y276150D01*
X421475Y266150D02*
X419475Y270150D01*
X423475D01*
X421475Y266150D01*
X411475D02*
X409475Y270150D01*
X413475D01*
X411475Y266150D01*
X401475D02*
X399475Y270150D01*
X403475D01*
X401475Y266150D01*
X396475Y276150D02*
X394475Y280150D01*
X398475D01*
X396475Y276150D01*
X391475Y266150D02*
X389475Y270150D01*
X393475D01*
X391475Y266150D01*
X432700Y168600D02*
X430700Y172600D01*
X434700D01*
X432700Y168600D01*
Y178600D02*
X430700Y182600D01*
X434700D01*
X432700Y178600D01*
X447500Y241000D02*
Y240000D01*
X449500D01*
Y241000D01*
X450500D01*
Y243000D01*
X449500D01*
Y244000D01*
X447500D01*
Y243000D01*
X446500D01*
Y241000D01*
X447500D01*
Y221000D02*
Y220000D01*
X449500D01*
Y221000D01*
X450500D01*
Y223000D01*
X449500D01*
Y224000D01*
X447500D01*
Y223000D01*
X446500D01*
Y221000D01*
X447500D01*
X175394Y302331D02*
X173394Y306331D01*
X177394D01*
X175394Y302331D01*
X185394D02*
X183394Y306331D01*
X187394D01*
X185394Y302331D01*
X140394Y112331D02*
X138394Y116331D01*
X142394D01*
X140394Y112331D01*
X150394D02*
X148394Y116331D01*
X152394D01*
X150394Y112331D01*
X160394D02*
X158394Y116331D01*
X162394D01*
X160394Y112331D01*
X170394D02*
X168394Y116331D01*
X172394D01*
X170394Y112331D01*
X180394D02*
X178394Y116331D01*
X182394D01*
X180394Y112331D01*
X190394D02*
X188394Y116331D01*
X192394D01*
X190394Y112331D01*
X200394D02*
X198394Y116331D01*
X202394D01*
X200394Y112331D01*
X210394D02*
X208394Y116331D01*
X212394D01*
X210394Y112331D01*
X220394D02*
X218394Y116331D01*
X222394D01*
X220394Y112331D01*
X230394D02*
X228394Y116331D01*
X232394D01*
X230394Y112331D01*
X245394D02*
X243394Y116331D01*
X247394D01*
X245394Y112331D01*
X255394D02*
X253394Y116331D01*
X257394D01*
X255394Y112331D01*
X265394D02*
X263394Y116331D01*
X267394D01*
X265394Y112331D01*
X275394D02*
X273394Y116331D01*
X277394D01*
X275394Y112331D01*
X285394D02*
X283394Y116331D01*
X287394D01*
X285394Y112331D01*
X295394D02*
X293394Y116331D01*
X297394D01*
X295394Y112331D01*
X305394D02*
X303394Y116331D01*
X307394D01*
X305394Y112331D01*
X315394D02*
X313394Y116331D01*
X317394D01*
X315394Y112331D01*
Y302331D02*
X313394Y306331D01*
X317394D01*
X315394Y302331D01*
X305394D02*
X303394Y306331D01*
X307394D01*
X305394Y302331D01*
X295394D02*
X293394Y306331D01*
X297394D01*
X295394Y302331D01*
X285394D02*
X283394Y306331D01*
X287394D01*
X285394Y302331D01*
X275394D02*
X273394Y306331D01*
X277394D01*
X275394Y302331D01*
X265394D02*
X263394Y306331D01*
X267394D01*
X265394Y302331D01*
X245394D02*
X243394Y306331D01*
X247394D01*
X245394Y302331D01*
X235394D02*
X233394Y306331D01*
X237394D01*
X235394Y302331D01*
X225394D02*
X223394Y306331D01*
X227394D01*
X225394Y302331D01*
X215394D02*
X213394Y306331D01*
X217394D01*
X215394Y302331D01*
X205394D02*
X203394Y306331D01*
X207394D01*
X205394Y302331D01*
X195394D02*
X193394Y306331D01*
X197394D01*
X195394Y302331D01*
X429475Y114142D02*
X430475Y116142D01*
X429475Y118142D01*
X431475Y117142D01*
X433475Y118142D01*
X432475Y116142D01*
X433475Y114142D01*
X431475Y115142D01*
X429475Y114142D01*
X384475D02*
X385475Y116142D01*
X384475Y118142D01*
X386475Y117142D01*
X388475Y118142D01*
X387475Y116142D01*
X388475Y114142D01*
X386475Y115142D01*
X384475Y114142D01*
X391475Y139142D02*
X389475Y143142D01*
X393475D01*
X391475Y139142D01*
X401475D02*
X399475Y143142D01*
X403475D01*
X401475Y139142D01*
X411475D02*
X409475Y143142D01*
X413475D01*
X411475Y139142D01*
X396475Y149142D02*
X394475Y153142D01*
X398475D01*
X396475Y149142D01*
X406475D02*
X404475Y153142D01*
X408475D01*
X406475Y149142D01*
X416475D02*
X414475Y153142D01*
X418475D01*
X416475Y149142D01*
X421475Y139142D02*
X419475Y143142D01*
X423475D01*
X421475Y139142D01*
X426475Y149142D02*
X424475Y153142D01*
X428475D01*
X426475Y149142D01*
X366897Y219495D02*
X367897D01*
X368897Y220495D01*
X369897Y219495D01*
X370897D01*
Y220495D01*
X369897Y221495D01*
X370897Y222495D01*
Y223495D01*
X369897D01*
X368897Y222495D01*
X367897Y223495D01*
X366897D01*
Y222495D01*
X367897Y221495D01*
X366897Y220495D01*
Y219495D01*
X224400Y244300D02*
X225400D01*
X226400Y245300D01*
X227400Y244300D01*
X228400D01*
Y245300D01*
X227400Y246300D01*
X228400Y247300D01*
Y248300D01*
X227400D01*
X226400Y247300D01*
X225400Y248300D01*
X224400D01*
Y247300D01*
X225400Y246300D01*
X224400Y245300D01*
Y244300D01*
X207000Y250600D02*
X208000D01*
X209000Y251600D01*
X210000Y250600D01*
X211000D01*
Y251600D01*
X210000Y252600D01*
X211000Y253600D01*
Y254600D01*
X210000D01*
X209000Y253600D01*
X208000Y254600D01*
X207000D01*
Y253600D01*
X208000Y252600D01*
X207000Y251600D01*
Y250600D01*
X354400Y158600D02*
X355400D01*
X356400Y159600D01*
X357400Y158600D01*
X358400D01*
Y159600D01*
X357400Y160600D01*
X358400Y161600D01*
Y162600D01*
X357400D01*
X356400Y161600D01*
X355400Y162600D01*
X354400D01*
Y161600D01*
X355400Y160600D01*
X354400Y159600D01*
Y158600D01*
X281600Y253600D02*
X282600D01*
X283600Y254600D01*
X284600Y253600D01*
X285600D01*
Y254600D01*
X284600Y255600D01*
X285600Y256600D01*
Y257600D01*
X284600D01*
X283600Y256600D01*
X282600Y257600D01*
X281600D01*
Y256600D01*
X282600Y255600D01*
X281600Y254600D01*
Y253600D01*
X273600Y248600D02*
X274600D01*
X275600Y249600D01*
X276600Y248600D01*
X277600D01*
Y249600D01*
X276600Y250600D01*
X277600Y251600D01*
Y252600D01*
X276600D01*
X275600Y251600D01*
X274600Y252600D01*
X273600D01*
Y251600D01*
X274600Y250600D01*
X273600Y249600D01*
Y248600D01*
X148900Y197500D02*
X149900D01*
X150900Y198500D01*
X151900Y197500D01*
X152900D01*
Y198500D01*
X151900Y199500D01*
X152900Y200500D01*
Y201500D01*
X151900D01*
X150900Y200500D01*
X149900Y201500D01*
X148900D01*
Y200500D01*
X149900Y199500D01*
X148900Y198500D01*
Y197500D01*
X275600Y220400D02*
X276600D01*
X277600Y221400D01*
X278600Y220400D01*
X279600D01*
Y221400D01*
X278600Y222400D01*
X279600Y223400D01*
Y224400D01*
X278600D01*
X277600Y223400D01*
X276600Y224400D01*
X275600D01*
Y223400D01*
X276600Y222400D01*
X275600Y221400D01*
Y220400D01*
X138900Y204600D02*
X139900D01*
X140900Y205600D01*
X141900Y204600D01*
X142900D01*
Y205600D01*
X141900Y206600D01*
X142900Y207600D01*
Y208600D01*
X141900D01*
X140900Y207600D01*
X139900Y208600D01*
X138900D01*
Y207600D01*
X139900Y206600D01*
X138900Y205600D01*
Y204600D01*
X286700Y220400D02*
X287700D01*
X288700Y221400D01*
X289700Y220400D01*
X290700D01*
Y221400D01*
X289700Y222400D01*
X290700Y223400D01*
Y224400D01*
X289700D01*
X288700Y223400D01*
X287700Y224400D01*
X286700D01*
Y223400D01*
X287700Y222400D01*
X286700Y221400D01*
Y220400D01*
X310400Y181900D02*
X311400D01*
X312400Y182900D01*
X313400Y181900D01*
X314400D01*
Y182900D01*
X313400Y183900D01*
X314400Y184900D01*
Y185900D01*
X313400D01*
X312400Y184900D01*
X311400Y185900D01*
X310400D01*
Y184900D01*
X311400Y183900D01*
X310400Y182900D01*
Y181900D01*
X304600Y187200D02*
X305600D01*
X306600Y188200D01*
X307600Y187200D01*
X308600D01*
Y188200D01*
X307600Y189200D01*
X308600Y190200D01*
Y191200D01*
X307600D01*
X306600Y190200D01*
X305600Y191200D01*
X304600D01*
Y190200D01*
X305600Y189200D01*
X304600Y188200D01*
Y187200D01*
X375100Y242200D02*
X376100D01*
X377100Y243200D01*
X378100Y242200D01*
X379100D01*
Y243200D01*
X378100Y244200D01*
X379100Y245200D01*
Y246200D01*
X378100D01*
X377100Y245200D01*
X376100Y246200D01*
X375100D01*
Y245200D01*
X376100Y244200D01*
X375100Y243200D01*
Y242200D01*
X436000Y204000D02*
X437000D01*
X438000Y205000D01*
X439000Y204000D01*
X440000D01*
Y205000D01*
X439000Y206000D01*
X440000Y207000D01*
Y208000D01*
X439000D01*
X438000Y207000D01*
X437000Y208000D01*
X436000D01*
Y207000D01*
X437000Y206000D01*
X436000Y205000D01*
Y204000D01*
X369900Y295700D02*
X370900D01*
X371900Y296700D01*
X372900Y295700D01*
X373900D01*
Y296700D01*
X372900Y297700D01*
X373900Y298700D01*
Y299700D01*
X372900D01*
X371900Y298700D01*
X370900Y299700D01*
X369900D01*
Y298700D01*
X370900Y297700D01*
X369900Y296700D01*
Y295700D01*
X194200Y260700D02*
X195200D01*
X196200Y261700D01*
X197200Y260700D01*
X198200D01*
Y261700D01*
X197200Y262700D01*
X198200Y263700D01*
Y264700D01*
X197200D01*
X196200Y263700D01*
X195200Y264700D01*
X194200D01*
Y263700D01*
X195200Y262700D01*
X194200Y261700D01*
Y260700D01*
X256100Y251900D02*
X257100D01*
X258100Y252900D01*
X259100Y251900D01*
X260100D01*
Y252900D01*
X259100Y253900D01*
X260100Y254900D01*
Y255900D01*
X259100D01*
X258100Y254900D01*
X257100Y255900D01*
X256100D01*
Y254900D01*
X257100Y253900D01*
X256100Y252900D01*
Y251900D01*
X348900Y290100D02*
X349900D01*
X350900Y291100D01*
X351900Y290100D01*
X352900D01*
Y291100D01*
X351900Y292100D01*
X352900Y293100D01*
Y294100D01*
X351900D01*
X350900Y293100D01*
X349900Y294100D01*
X348900D01*
Y293100D01*
X349900Y292100D01*
X348900Y291100D01*
Y290100D01*
X249800Y284700D02*
X250800D01*
X251800Y285700D01*
X252800Y284700D01*
X253800D01*
Y285700D01*
X252800Y286700D01*
X253800Y287700D01*
Y288700D01*
X252800D01*
X251800Y287700D01*
X250800Y288700D01*
X249800D01*
Y287700D01*
X250800Y286700D01*
X249800Y285700D01*
Y284700D01*
X101200Y190700D02*
X102200D01*
X103200Y191700D01*
X104200Y190700D01*
X105200D01*
Y191700D01*
X104200Y192700D01*
X105200Y193700D01*
Y194700D01*
X104200D01*
X103200Y193700D01*
X102200Y194700D01*
X101200D01*
Y193700D01*
X102200Y192700D01*
X101200Y191700D01*
Y190700D01*
X361800Y244600D02*
X362800D01*
X363800Y245600D01*
X364800Y244600D01*
X365800D01*
Y245600D01*
X364800Y246600D01*
X365800Y247600D01*
Y248600D01*
X364800D01*
X363800Y247600D01*
X362800Y248600D01*
X361800D01*
Y247600D01*
X362800Y246600D01*
X361800Y245600D01*
Y244600D01*
X428200Y250300D02*
X429200D01*
X430200Y251300D01*
X431200Y250300D01*
X432200D01*
Y251300D01*
X431200Y252300D01*
X432200Y253300D01*
Y254300D01*
X431200D01*
X430200Y253300D01*
X429200Y254300D01*
X428200D01*
Y253300D01*
X429200Y252300D01*
X428200Y251300D01*
Y250300D01*
X291300Y266400D02*
X292300D01*
X293300Y267400D01*
X294300Y266400D01*
X295300D01*
Y267400D01*
X294300Y268400D01*
X295300Y269400D01*
Y270400D01*
X294300D01*
X293300Y269400D01*
X292300Y270400D01*
X291300D01*
Y269400D01*
X292300Y268400D01*
X291300Y267400D01*
Y266400D01*
X298500Y267000D02*
X299500D01*
X300500Y268000D01*
X301500Y267000D01*
X302500D01*
Y268000D01*
X301500Y269000D01*
X302500Y270000D01*
Y271000D01*
X301500D01*
X300500Y270000D01*
X299500Y271000D01*
X298500D01*
Y270000D01*
X299500Y269000D01*
X298500Y268000D01*
Y267000D01*
X341000Y156300D02*
X342000D01*
X343000Y157300D01*
X344000Y156300D01*
X345000D01*
Y157300D01*
X344000Y158300D01*
X345000Y159300D01*
Y160300D01*
X344000D01*
X343000Y159300D01*
X342000Y160300D01*
X341000D01*
Y159300D01*
X342000Y158300D01*
X341000Y157300D01*
Y156300D01*
X324100Y266100D02*
X325100D01*
X326100Y267100D01*
X327100Y266100D01*
X328100D01*
Y267100D01*
X327100Y268100D01*
X328100Y269100D01*
Y270100D01*
X327100D01*
X326100Y269100D01*
X325100Y270100D01*
X324100D01*
Y269100D01*
X325100Y268100D01*
X324100Y267100D01*
Y266100D01*
X332900Y265800D02*
X333900D01*
X334900Y266800D01*
X335900Y265800D01*
X336900D01*
Y266800D01*
X335900Y267800D01*
X336900Y268800D01*
Y269800D01*
X335900D01*
X334900Y268800D01*
X333900Y269800D01*
X332900D01*
Y268800D01*
X333900Y267800D01*
X332900Y266800D01*
Y265800D01*
X375200Y236200D02*
X376200D01*
X377200Y237200D01*
X378200Y236200D01*
X379200D01*
Y237200D01*
X378200Y238200D01*
X379200Y239200D01*
Y240200D01*
X378200D01*
X377200Y239200D01*
X376200Y240200D01*
X375200D01*
Y239200D01*
X376200Y238200D01*
X375200Y237200D01*
Y236200D01*
X389600Y186100D02*
X390600D01*
X391600Y187100D01*
X392600Y186100D01*
X393600D01*
Y187100D01*
X392600Y188100D01*
X393600Y189100D01*
Y190100D01*
X392600D01*
X391600Y189100D01*
X390600Y190100D01*
X389600D01*
Y189100D01*
X390600Y188100D01*
X389600Y187100D01*
Y186100D01*
X193300Y188600D02*
X194300D01*
X195300Y189600D01*
X196300Y188600D01*
X197300D01*
Y189600D01*
X196300Y190600D01*
X197300Y191600D01*
Y192600D01*
X196300D01*
X195300Y191600D01*
X194300Y192600D01*
X193300D01*
Y191600D01*
X194300Y190600D01*
X193300Y189600D01*
Y188600D01*
X358900Y290200D02*
X359900D01*
X360900Y291200D01*
X361900Y290200D01*
X362900D01*
Y291200D01*
X361900Y292200D01*
X362900Y293200D01*
Y294200D01*
X361900D01*
X360900Y293200D01*
X359900Y294200D01*
X358900D01*
Y293200D01*
X359900Y292200D01*
X358900Y291200D01*
Y290200D01*
D42*
X459087Y304724D02*
G03*
X459087Y304724I-2000J0D01*
G01*
X458299Y114567D02*
G03*
X458299Y114567I-2000J0D01*
G01*
X330500Y172000D02*
G03*
X330500Y172000I-2000J0D01*
G01*
Y282000D02*
G03*
X330500Y282000I-2000J0D01*
G01*
X126500Y152500D02*
G03*
X126500Y152500I-2000J0D01*
G01*
M02*
