M48
;Layer_Color=9474304
;FILE_FORMAT=2:5
INCH,LZ
;TYPE=PLATED
T1F00S00C0.02500
T2F00S00C0.03500
T3F00S00C0.03543
T4F00S00C0.04000
T5F00S00C0.10236
T6F00S00C0.12500
T7F00S00C0.12600
%
T01
X0343Y01583
X03564Y01606
X03916Y01881
X0368897Y0221495
X03772Y02382
X03771Y02442
X03638Y02466
X03609Y02922
X03509Y02921
X03719Y02977
X03349Y02678
X03261Y02681
X04302Y02523
X0438Y0206
X03124Y01839
X03066Y01892
X02887Y02224
X02776
X02756Y02506
X02836Y02556
X02933Y02684
X03005Y0269
X02581Y02539
X02518Y02867
X02264Y02463
X0209Y02526
X01962Y02627
X01953Y01906
X01509Y01995
X01409Y02066
X01032Y01927
T02
X0140394Y0114331
X0150394
X0160394
X0170394
X0180394
X0190394
X0200394
X0210394
X0220394
X0230394
X0245394
X0255394
X0265394
X0275394
X0285394
X0295394
X0305394
X0242441Y0141732
X0232441
X0222441
Y0151732
X0232441
X0242441
X0315394Y0114331
X0391475Y0141142
X0401475
X0411475
X0421475
X0416475Y0151142
X0406475
X0396475
X0426475
X04585Y0146
Y0136
X04327Y01706
Y01806
X04127Y01705
X04027
X03927
X0391475Y026815
X0401475
X0411475
X0421475
X0426475Y027815
X0416475
X0406475
X0396475
X0361Y03045
X0351
X0341
X0331
X0315394Y0304331
X04585Y02795
Y02695
X0305394Y0304331
X0295394
X0285394
X0275394
X0265394
X0245394
X0235394
X0225394
X0215394
X0205394
X0195394
X0185394
X0175394
X016Y03045
X0162819Y0232189
X0172819
X0182819
X0205945Y0232284
X0215945
X0225945
X0235945
X0245945
X0255945
X0265945
X0275945
X0152819Y0232189
X0110925Y0231201
Y0221201
X0110531Y0180512
Y0170512
X011Y03045
X012
X013
X014
X015
T03
X0336299Y011811
X0346299
X0356299
T04
X04485Y0222
Y0242
T05
X0210945Y0189284
X0270945
T06
X01245Y01525
X0456299Y0114567
X03285Y0172
Y0282
X0457087Y0304724
T07
X0386475Y0116142
X0431475
Y030315
X0386475
M30
